<svg width="522" height="329" viewBox="0 0 522 329" fill="none" xmlns="http://www.w3.org/2000/svg">
<g clip-path="url(#clip0_335_517)">
<path d="M450.398 326.872C450.398 326.872 487.889 335.774 506.342 295.431C530.279 243.095 496.682 193.38 438.713 189.797C355.095 184.635 401.443 50.9482 269.514 87.2219C232.418 97.4186 151.745 44.7662 104.233 133.98C96.1582 149.15 72.0141 148.406 39.8465 174.284C-16.896 219.937 3.52991 327.354 51.3361 327.843C99.1423 328.332 450.398 326.872 450.398 326.872Z" fill="#8A89A9"/>
<path d="M59.6978 327.648C59.6978 327.648 61.4403 316.211 83.6759 313.136C105.911 310.061 126.589 285.388 163.263 288.971C199.938 292.554 230.363 315.016 272.095 308.15C313.828 301.284 339.976 310.039 349.331 316.959C358.685 323.88 397.443 315.336 400.306 328.016L59.6978 327.648Z" fill="#81E3A5"/>
<path d="M106.818 312.018C106.818 312.018 89.4879 267.587 77.3345 274.651C65.1811 281.715 106.818 312.018 106.818 312.018Z" fill="#81E3A5"/>
<path d="M98.2519 312.018C98.2519 312.018 75.3557 292.199 64.9002 295.882C54.4447 299.564 98.2519 312.018 98.2519 312.018Z" fill="#81E3A5"/>
<path d="M340.663 318.427C340.663 318.427 345.941 300.053 352.13 302.22C358.318 304.388 340.663 318.427 340.663 318.427Z" fill="#81E3A5"/>
<path d="M345.479 317.423C345.479 317.423 358.947 308.569 361.905 311.305C364.864 314.041 345.479 317.423 345.479 317.423Z" fill="#81E3A5"/>
<g opacity="0.4">
<path d="M158.62 256.61C158.62 256.61 146.993 243.415 157.902 235.033C157.902 235.033 165.881 230.338 172.372 230.721C172.372 230.721 163.165 245.745 166.142 247.234C169.12 248.724 175.162 229.778 175.162 229.778C175.162 229.778 193.299 228.068 199.133 230.795C199.133 230.795 183.629 243.137 186.894 243.872C190.159 244.607 206.905 232.492 206.905 232.492C206.905 232.492 223.785 235.289 222.885 245.304C221.985 255.318 216.183 258.409 213.629 258.147C211.076 257.885 196.121 252.33 195.792 254.366C195.463 256.402 204.47 263.063 210.773 263.374C210.773 263.374 198.872 276.14 190.963 272.458C183.054 268.776 182.378 262.932 177.447 260.74C172.516 258.547 168.309 258.556 170.346 260.791C172.382 263.025 181.302 265.195 184.12 270.061C186.939 274.926 189.473 278.183 181.289 276.984C173.106 275.785 159.804 269.952 159.22 263.294L158.62 256.61Z" fill="#3A3A5B"/>
<path d="M214.6 245.576C214.6 245.576 168.75 243.856 158.62 256.61C158.62 256.61 156.386 263.134 149.489 269.076L148.417 271.921C148.417 271.921 156.36 263.773 159.204 263.29C159.21 263.281 154.765 247.477 214.6 245.576Z" fill="#3A3A5B"/>
<path d="M149.495 269.076C149.495 269.076 139.656 276.153 138.963 288.805L140.751 288.958C140.751 288.958 143.891 275.878 149.572 270.764C155.253 265.649 149.495 269.076 149.495 269.076Z" fill="#3A3A5B"/>
<path d="M117.972 240.017C117.972 240.017 136.467 229.938 127.837 216.264C127.837 216.264 120.931 207.867 113.533 205.715C113.533 205.715 117.478 226.106 113.533 226.585C109.588 227.065 110.82 203.555 110.82 203.555C110.82 203.555 91.3357 194.438 83.6919 195.157C83.6919 195.157 95.7783 215.072 91.8304 214.592C87.8824 214.113 74.3215 193.959 74.3215 193.959C74.3215 193.959 54.3456 190.36 51.1381 201.876C47.9306 213.393 53.1105 219.137 56.0723 219.869C59.034 220.601 78.0205 220.349 77.5258 222.746C77.0312 225.144 64.2107 228.983 57.0584 226.825C57.0584 226.825 64.948 245.777 75.3077 244.818C85.6675 243.859 88.8718 237.619 95.2836 237.146C101.695 236.673 106.384 238.345 103.176 240.023C99.9688 241.701 89.1335 240.573 83.9409 244.856C78.7482 249.14 74.5673 251.777 84.1866 253.698C93.8059 255.619 111.069 254.417 114.522 247.219L117.972 240.017Z" fill="#3A3A5B"/>
<path d="M60.2598 205.469C60.2598 205.469 112.052 221.771 117.973 240.017C117.973 240.017 117.724 248.171 122.903 257.527V261.126C122.903 261.126 117.478 248.893 114.519 247.212C114.519 247.212 126.111 231.377 60.2598 205.469Z" fill="#3A3A5B"/>
<path d="M122.903 257.527C122.903 257.527 130.882 269.329 126.338 283.69L124.282 283.153C124.282 283.153 126.277 267.334 122.099 259.378C117.921 251.422 122.903 257.527 122.903 257.527Z" fill="#3A3A5B"/>
<path d="M147.399 226.119C147.399 226.119 123.015 212.837 134.396 194.812C134.396 194.812 143.498 183.743 153.252 180.895C153.252 180.895 148.05 207.777 153.252 208.41C158.454 209.043 156.826 178.043 156.826 178.043C156.826 178.043 182.509 166.025 192.572 166.974C192.572 166.974 176.643 193.224 181.842 192.591C187.041 191.958 204.926 165.395 204.926 165.395C204.926 165.395 231.26 160.648 235.485 175.828C239.711 191.008 232.884 198.6 228.984 199.549C225.084 200.499 200.049 200.189 200.701 203.344C201.352 206.499 218.254 211.565 227.682 208.72C227.682 208.72 217.281 233.701 203.624 232.438C189.967 231.175 185.751 222.951 177.291 222.318C168.83 221.685 162.664 223.916 166.889 226.112C171.115 228.308 185.419 226.838 192.246 232.483C199.073 238.128 204.601 241.609 191.927 244.137C179.253 246.666 156.501 245.096 151.94 235.599L147.399 226.119Z" fill="#3A3A5B"/>
<path d="M223.472 180.578C223.472 180.578 155.202 202.084 147.399 226.119C147.399 226.119 147.718 236.871 140.897 249.203V253.947C140.897 253.947 148.05 237.821 151.95 235.622C151.95 235.622 136.672 214.733 223.472 180.578Z" fill="#3A3A5B"/>
<path d="M140.897 249.204C140.897 249.204 130.365 264.758 136.372 283.69L139.078 282.981C139.078 282.981 136.448 262.13 141.951 251.655C147.453 241.18 140.897 249.204 140.897 249.204Z" fill="#3A3A5B"/>
<path d="M146.578 324.743C172.957 324.743 194.34 303.943 194.34 278.282H98.8169C98.8169 303.943 120.2 324.743 146.578 324.743Z" fill="#3A3A5B"/>
<path d="M158.329 324.388C156.361 324.626 154.379 324.744 152.396 324.743C126.018 324.743 104.635 303.94 104.635 278.282H116.491C116.491 301.987 134.75 321.546 158.329 324.388Z" fill="#3A3A5B"/>
<path d="M195.004 327.108H98.1562C98.1671 326.345 98.328 325.591 98.6298 324.889C98.9316 324.188 99.3683 323.553 99.9151 323.021C100.462 322.489 101.108 322.07 101.817 321.787C102.525 321.505 103.282 321.366 104.045 321.377H189.106C189.869 321.365 190.627 321.503 191.337 321.785C192.046 322.066 192.694 322.485 193.242 323.017C193.789 323.55 194.227 324.185 194.529 324.887C194.832 325.589 194.993 326.344 195.004 327.108Z" fill="#3A3A5B"/>
<path d="M195.422 278.282H97.2432V279.708H195.422V278.282Z" fill="#3A3A5B"/>
</g>
<g opacity="0.4">
<path d="M319.407 101.628C319.407 101.628 311.039 86.2853 323.575 80.4229C323.575 80.4229 332.409 77.5461 338.665 79.3074C338.665 79.3074 326.291 91.9942 328.86 94.0879C331.429 96.1816 341.598 78.9941 341.598 78.9941C341.598 78.9941 359.678 81.1965 364.756 85.1026C364.756 85.1026 346.845 93.8354 349.864 95.2482C352.883 96.6611 371.956 88.4205 371.956 88.4205C371.956 88.4205 387.795 94.7496 384.655 104.329C381.514 113.909 375.144 115.687 372.712 114.878C370.28 114.069 356.939 105.461 356.164 107.379C355.388 109.297 362.665 117.716 368.745 119.366C368.745 119.366 354.252 129.275 347.362 123.997C340.471 118.72 341.135 112.87 336.83 109.68C332.524 106.49 328.407 105.598 329.888 108.213C331.369 110.828 339.587 114.849 341.24 120.184C342.893 125.519 344.626 129.252 336.913 126.337C329.199 123.422 317.54 114.9 318.475 108.267L319.407 101.628Z" fill="#3A3A5B"/>
<path d="M376.503 102.814C376.503 102.814 332.16 91.3485 319.406 101.628C319.406 101.628 315.749 107.516 307.687 111.841L305.996 114.398C305.996 114.398 315.586 108.146 318.471 108.271C318.471 108.261 317.699 91.8951 376.503 102.814Z" fill="#3A3A5B"/>
<path d="M307.687 111.841C307.687 111.841 296.495 116.645 292.984 128.84L294.691 129.374C294.691 129.374 300.707 117.285 307.403 113.506C314.099 109.728 307.687 111.841 307.687 111.841Z" fill="#3A3A5B"/>
</g>
<g opacity="0.4">
<path d="M264.314 73.931C264.314 73.931 239.538 61.3592 250.358 43.0114C250.358 43.0114 259.119 31.6863 268.779 28.5569C268.779 28.5569 264.404 55.5768 269.622 56.0467C274.84 56.5165 272.268 25.613 272.268 25.613C272.268 25.613 297.57 12.8526 307.665 13.5111C307.665 13.5111 292.547 40.2081 297.727 39.4249C302.907 38.6418 319.965 11.5708 319.965 11.5708C319.965 11.5708 346.136 6.06648 350.831 21.1187C355.526 36.1709 348.916 43.9544 345.057 45.0156C341.199 46.0768 316.155 46.486 316.902 49.6281C317.648 52.7703 334.701 57.338 344.03 54.2183C344.03 54.2183 334.394 79.4928 320.706 78.6234C307.017 77.754 302.559 69.6573 294.095 69.2705C285.631 68.8837 279.519 71.2747 283.812 73.3652C288.104 75.4557 302.358 73.5538 309.344 79.0006C316.33 84.4474 321.973 87.7621 309.376 90.6581C296.779 93.5542 273.985 92.6336 269.162 83.2807L264.314 73.931Z" fill="#3A3A5B"/>
<path d="M338.962 26.2075C338.962 26.2075 271.378 49.6793 264.315 73.931C264.315 73.931 264.969 84.668 258.522 97.195L258.669 101.935C258.669 101.935 265.323 85.6077 269.156 83.2807C269.156 83.2807 253.243 62.8616 338.962 26.2075Z" fill="#3A3A5B"/>
<path d="M258.515 97.1949C258.515 97.1949 248.468 113.043 255.046 131.794L257.734 131.007C257.734 131.007 254.465 110.23 259.648 99.5987C264.832 88.9672 258.515 97.1949 258.515 97.1949Z" fill="#3A3A5B"/>
</g>
<path opacity="0.4" d="M141.532 64.7187C141.532 64.7187 116.434 63.5328 129.749 137.279C129.749 137.279 138.705 162.314 127.397 178.449H293.839V64.7187H141.532Z" fill="#3A3A5B"/>
<path d="M151.107 55.1292C151.107 55.1292 126.009 53.8986 139.324 130.509C139.324 130.509 148.279 156.512 136.972 173.274H303.414V55.1292H151.107Z" fill="#3A3A5B"/>
<path d="M168.195 254.302C168.195 254.302 156.568 240.717 167.477 232.086C167.477 232.086 175.455 227.253 181.947 227.646C181.947 227.646 172.739 243.111 175.717 244.649C178.695 246.186 184.743 226.672 184.743 226.672C184.743 226.672 202.88 224.91 208.715 227.72C208.715 227.72 193.21 240.426 196.475 241.184C199.74 241.941 216.486 229.468 216.486 229.468C216.486 229.468 233.366 232.345 232.466 242.657C231.566 252.969 225.764 256.156 223.211 255.881C220.657 255.606 205.702 249.891 205.373 251.988C205.044 254.085 214.051 260.938 220.354 261.257C220.354 261.257 208.453 274.401 200.544 270.607C192.635 266.813 191.943 260.81 187.025 258.553C182.107 256.297 177.887 256.316 179.924 258.604C181.96 260.893 190.88 263.14 193.698 268.136C196.516 273.132 199.038 276.498 190.855 275.258C182.671 274.018 169.369 268.028 168.785 261.158L168.195 254.302Z" fill="#599DAD"/>
<path d="M224.174 242.938C224.174 242.938 178.325 241.171 168.195 254.302C168.195 254.302 165.961 261.015 159.064 267.136L157.991 270.067C157.991 270.067 165.935 261.676 168.779 261.168C168.785 261.168 164.339 244.891 224.174 242.938Z" fill="#599DAD"/>
<path d="M159.07 267.136C159.07 267.136 149.231 274.424 148.538 287.446L150.325 287.609C150.325 287.609 153.466 274.143 159.147 268.875C164.828 263.607 159.07 267.136 159.07 267.136Z" fill="#5DD782"/>
<path d="M127.547 237.22C127.547 237.22 146.042 226.844 137.412 212.764C137.412 212.764 130.506 204.133 123.108 201.896C123.108 201.896 127.052 222.893 123.108 223.386C119.163 223.878 120.395 199.674 120.395 199.674C120.395 199.674 100.91 190.286 93.2666 191.044C93.2666 191.044 105.353 211.546 101.405 211.05C97.4571 210.555 83.8962 189.81 83.8962 189.81C83.8962 189.81 63.9203 186.105 60.7128 197.961C57.5053 209.816 62.6852 215.746 65.647 216.5C68.6087 217.255 87.5952 216.993 87.1006 219.463C86.6059 221.934 73.7854 225.885 66.6332 223.664C66.6332 223.664 74.5227 243.162 84.8824 242.203C95.2422 241.244 98.4465 234.794 104.858 234.298C111.27 233.803 115.959 235.535 112.751 237.265C109.544 238.994 98.7082 237.83 93.5156 242.238C88.3229 246.646 84.142 249.367 93.7613 251.342C103.381 253.317 120.644 252.084 124.097 244.674L127.547 237.22Z" fill="#5DD782"/>
<path d="M69.8345 201.646C69.8345 201.646 121.627 218.444 127.547 237.22C127.547 237.22 127.298 245.617 132.478 255.251V258.956C132.478 258.956 127.053 246.359 124.094 244.629C124.094 244.626 135.686 228.324 69.8345 201.646Z" fill="#5DD782"/>
<path d="M132.478 255.248C132.478 255.248 140.457 267.395 135.912 282.182L133.857 281.629C133.857 281.629 135.852 265.343 131.674 257.15C127.496 248.957 132.478 255.248 132.478 255.248Z" fill="#5DD782"/>
<path d="M156.973 222.909C156.973 222.909 132.59 209.232 143.971 190.673C143.971 190.673 153.073 179.277 162.827 176.346C162.827 176.346 157.624 204.025 162.827 204.673C168.029 205.322 166.401 173.415 166.401 173.415C166.401 173.415 192.083 161.045 202.146 162.02C202.146 162.02 186.217 189.046 191.416 188.394C196.615 187.742 214.501 160.393 214.501 160.393C214.501 160.393 240.834 155.508 245.06 171.136C249.286 186.764 242.459 194.579 238.559 195.557C234.659 196.535 209.624 196.196 210.275 199.463C210.926 202.73 227.829 207.931 237.257 204.999C237.257 204.999 226.855 230.722 213.199 229.421C199.542 228.12 195.323 219.639 186.881 219C178.44 218.361 172.254 220.63 176.48 222.909C180.706 225.188 195.01 223.654 201.837 229.469C208.664 235.283 214.191 238.863 201.518 241.468C188.844 244.073 166.091 242.443 161.531 232.675L156.973 222.909Z" fill="#81E3A5"/>
<path d="M233.047 176.02C233.047 176.02 164.776 198.162 156.973 222.909C156.973 222.909 157.292 233.979 150.472 246.678V251.563C150.472 251.563 157.624 234.941 161.524 232.675C161.524 232.675 146.246 211.185 233.047 176.02Z" fill="#5DD782"/>
<path d="M150.472 246.678C150.472 246.678 139.94 262.69 145.946 282.182L148.653 281.453C148.653 281.453 146.023 259.985 151.525 249.188C157.028 238.39 150.472 246.678 150.472 246.678Z" fill="#5DD782"/>
<path d="M156.153 324.452C168.82 324.452 180.968 319.412 189.925 310.441C198.882 301.47 203.914 289.303 203.914 276.617H108.391C108.391 289.303 113.423 301.47 122.38 310.441C131.337 319.412 143.485 324.452 156.153 324.452Z" fill="#765D63"/>
<path d="M167.904 324.084C161.184 324.923 154.362 324.322 147.892 322.32C141.421 320.319 135.449 316.963 130.372 312.474C125.295 307.986 121.228 302.468 118.442 296.286C115.655 290.104 114.213 283.399 114.209 276.617H126.066C126.067 288.276 130.319 299.533 138.023 308.274C145.727 317.015 156.353 322.637 167.904 324.084Z" fill="#FFCCBE"/>
<path d="M204.578 326.884H107.73C107.73 325.32 108.351 323.82 109.455 322.713C110.559 321.607 112.057 320.985 113.619 320.984H198.68C199.454 320.983 200.221 321.135 200.937 321.431C201.652 321.727 202.302 322.162 202.85 322.71C203.398 323.258 203.832 323.909 204.129 324.625C204.425 325.341 204.578 326.109 204.578 326.884Z" fill="#765D63"/>
<path d="M204.996 276.617H106.818V278.084H204.996V276.617Z" fill="#765D63"/>
<path opacity="0.4" d="M328.618 108.373H157.768V326.884H328.618V108.373Z" fill="#3A3A5B"/>
<path d="M328.982 94.7336C328.982 94.7336 320.613 78.9238 333.15 72.9017C333.15 72.9017 341.984 69.9385 348.239 71.7509C348.239 71.7509 335.866 84.815 338.435 86.9694C341.004 89.1238 351.172 71.4185 351.172 71.4185C351.172 71.4185 369.253 73.6848 374.33 77.7092C374.33 77.7092 356.419 86.6977 359.438 88.1553C362.458 89.6129 381.53 81.123 381.53 81.123C381.53 81.123 397.37 87.6406 394.23 97.505C391.089 107.369 384.719 109.198 382.287 108.373C379.855 107.548 366.514 98.6781 365.739 100.654C364.963 102.629 372.24 111.298 378.32 112.995C378.32 112.995 363.827 123.205 356.936 117.764C350.046 112.324 350.71 106.308 346.404 103.025C342.099 99.7425 337.985 98.8123 339.459 101.507C340.934 104.202 349.155 108.341 350.812 113.836C352.468 119.331 354.198 123.173 346.484 120.171C338.77 117.17 327.111 108.392 328.046 101.565L328.982 94.7336Z" fill="#5DD782"/>
<path d="M386.078 95.9547C386.078 95.9547 341.735 84.1469 328.982 94.7336C328.982 94.7336 325.324 100.807 317.262 105.247L315.571 107.871C315.571 107.871 325.161 101.433 328.047 101.561C328.047 101.561 327.274 84.7127 386.078 95.9547Z" fill="#5DD782"/>
<path d="M317.262 105.247C317.262 105.247 306.069 110.195 302.559 122.751L304.266 123.301C304.266 123.301 310.282 110.853 316.978 106.963C323.674 103.073 317.262 105.247 317.262 105.247Z" fill="#599DAD"/>
<path d="M273.889 66.2082C273.889 66.2082 249.113 53.2656 259.932 34.3744C259.932 34.3744 268.693 22.7137 278.354 19.4948C278.354 19.4948 273.978 47.3042 279.197 47.8092C284.415 48.3143 281.842 16.4581 281.842 16.4581C281.842 16.4581 307.145 3.3302 317.24 4.00785C317.24 4.00785 302.122 31.4976 307.301 30.6889C312.481 29.8802 329.54 2.01005 329.54 2.01005C329.54 2.01005 355.711 -3.65731 360.406 11.8392C365.1 27.3358 358.491 35.3525 354.632 36.4521C350.774 37.5517 325.729 37.9673 326.476 41.2021C327.223 44.4369 344.275 49.139 353.604 45.9297C353.604 45.9297 343.969 71.9522 330.281 71.0572C316.592 70.1622 312.133 61.8162 303.669 61.4134C295.205 61.0107 289.094 63.4784 293.386 65.6296C297.679 67.7808 311.932 65.8246 318.919 71.4312C325.905 77.0378 331.548 80.4549 318.951 83.434C306.354 86.4131 283.559 85.467 278.737 75.8392L273.889 66.2082Z" fill="#81E3A5"/>
<path d="M348.536 17.0815C348.536 17.0815 280.952 41.2469 273.889 66.2083C273.889 66.2083 274.544 77.2649 268.097 90.1627L268.243 95.0437C268.243 95.0437 274.898 78.2302 278.731 75.8361C278.731 75.8425 262.818 54.8192 348.536 17.0815Z" fill="#5DD782"/>
<path d="M268.09 90.1818C268.09 90.1818 258.05 106.484 264.627 125.791L267.315 124.982C267.315 124.982 264.046 103.601 269.23 92.6431C274.413 81.6856 268.09 90.1818 268.09 90.1818Z" fill="#6BB7BF"/>
<path d="M335.428 100.474H161.658V327.444H335.428V100.474Z" fill="#FF2948"/>
<path d="M338.192 100.474H167.342V327.444H338.192V100.474Z" fill="#FF4D67"/>
<path d="M458.661 326.888H424.23C422.385 325.321 425.507 321.773 428.769 321.521C430.186 321.415 431.96 321.712 434.025 322.144C434.497 315.841 437.217 287.51 447.401 288.648C458.865 289.927 447.401 301.114 444.158 307.757C441.758 312.67 439.224 319.715 438.069 323.039C439.001 323.24 439.961 323.439 440.941 323.621C442.46 318.948 448.116 303.23 455.303 304.145C463.745 305.215 460.352 311.519 454.368 315.259C449.976 318.011 444.586 321.92 442.026 323.809C444.248 324.198 446.502 324.378 448.757 324.35C454.665 324.209 457.544 325.951 458.661 326.888Z" fill="#81E3A5"/>
<path d="M338.192 100.471H167.339C168.297 87.5319 166.86 78.1374 164.578 71.3833C160.2 58.3896 152.648 55.1292 152.648 55.1292H313.774C327.526 55.1292 338.189 63.44 341.093 74.4423C341.202 74.8578 341.301 75.2702 341.39 75.6825C344.145 88.2799 338.304 100.241 338.192 100.471Z" fill="#80B4FF"/>
<path d="M338.192 100.471H167.339C168.297 87.5319 166.861 78.1375 164.579 71.3833C182.04 74.5798 225.285 81.4075 271.572 80.2599C301.515 79.5152 325.19 77.5078 341.39 75.6826C344.145 88.2799 338.304 100.241 338.192 100.471Z" fill="#7398E6"/>
<path d="M292.626 152.81H202.89C202.327 152.809 201.787 152.584 201.389 152.185C200.99 151.786 200.766 151.246 200.764 150.682C200.766 150.118 200.99 149.577 201.389 149.178C201.787 148.779 202.327 148.554 202.89 148.553H292.626C293.19 148.554 293.729 148.779 294.128 149.178C294.526 149.577 294.75 150.118 294.752 150.682C294.75 151.246 294.526 151.786 294.128 152.185C293.729 152.584 293.19 152.809 292.626 152.81Z" fill="#ECF1F9"/>
<path d="M257.398 155.713H202.692C201.627 155.713 200.764 156.577 200.764 157.644V158.04C200.764 159.106 201.627 159.971 202.692 159.971H257.398C258.463 159.971 259.326 159.106 259.326 158.04V157.644C259.326 156.577 258.463 155.713 257.398 155.713Z" fill="#ECF1F9"/>
<path d="M192.038 159.28V150.595H190.893C190.197 150.595 189.849 150.308 189.849 149.729C189.849 149.31 190.12 149.013 190.666 148.84C191.099 148.721 191.545 148.652 191.994 148.633C192.6 148.585 193.092 148.562 193.462 148.562C193.832 148.562 194.046 148.636 194.138 148.78C194.263 149.133 194.31 149.509 194.276 149.883V159.29H195.457C196.223 159.29 196.602 159.609 196.602 160.284C196.602 160.958 196.223 161.326 195.457 161.326H190.701C190.398 161.336 190.1 161.241 189.859 161.057C189.746 160.967 189.657 160.851 189.598 160.719C189.539 160.588 189.513 160.444 189.52 160.3C189.52 159.629 189.906 159.29 190.682 159.29L192.038 159.28Z" fill="#ECF1F9"/>
<path d="M292.626 197.635H202.89C202.327 197.633 201.787 197.408 201.389 197.009C200.99 196.61 200.766 196.07 200.764 195.506C200.766 194.942 200.99 194.402 201.389 194.004C201.787 193.605 202.327 193.381 202.89 193.38H292.626C293.189 193.381 293.729 193.605 294.127 194.004C294.526 194.402 294.75 194.942 294.752 195.506C294.75 196.07 294.526 196.61 294.128 197.009C293.729 197.408 293.19 197.633 292.626 197.635Z" fill="#ECF1F9"/>
<path d="M257.398 200.54H202.692C201.627 200.54 200.764 201.405 200.764 202.471V202.867C200.764 203.934 201.627 204.798 202.692 204.798H257.398C258.463 204.798 259.326 203.934 259.326 202.867V202.471C259.326 201.405 258.463 200.54 257.398 200.54Z" fill="#ECF1F9"/>
<path d="M196.784 203.929C196.784 204.506 196.38 204.796 195.572 204.798H190.535C189.808 204.798 189.444 204.504 189.444 203.922C189.47 203.683 189.573 203.458 189.737 203.283C190.025 202.955 190.444 202.462 190.995 201.806C191.833 200.741 192.534 199.829 193.098 199.07C193.293 198.814 193.567 198.431 193.925 197.903C194.182 197.508 194.335 197.054 194.372 196.583C194.378 196.401 194.347 196.219 194.281 196.048C194.215 195.878 194.116 195.723 193.989 195.592C193.861 195.462 193.707 195.36 193.538 195.293C193.369 195.225 193.188 195.193 193.006 195.199C192.635 195.192 192.274 195.323 191.994 195.567C191.752 195.822 191.591 196.143 191.531 196.49C191.387 197.072 191.298 197.411 191.257 197.504C191.197 197.654 191.093 197.782 190.958 197.87C190.823 197.958 190.664 198.002 190.503 197.996C190.365 198.002 190.227 197.974 190.101 197.915C189.976 197.856 189.866 197.768 189.782 197.657C189.611 197.439 189.524 197.167 189.536 196.89C189.539 196.519 189.596 196.151 189.706 195.797C189.916 195.058 190.378 194.417 191.011 193.984C191.655 193.571 192.41 193.362 193.175 193.387C194.031 193.359 194.865 193.662 195.505 194.234C195.819 194.521 196.067 194.874 196.232 195.267C196.397 195.66 196.476 196.084 196.462 196.51C196.44 197.27 196.2 198.007 195.773 198.635C195.517 199.036 194.985 199.743 194.177 200.758C193.768 201.282 193.124 202.042 192.243 203.037H195.559C196.385 203.018 196.784 203.337 196.784 203.929Z" fill="#ECF1F9"/>
<path d="M292.626 235.03H202.89C202.327 235.029 201.787 234.804 201.389 234.405C200.99 234.006 200.766 233.466 200.764 232.901C200.766 232.337 200.99 231.797 201.389 231.398C201.787 230.999 202.327 230.774 202.89 230.773H292.626C293.19 230.774 293.729 230.999 294.128 231.398C294.526 231.797 294.75 232.337 294.752 232.901C294.75 233.466 294.526 234.006 294.128 234.405C293.729 234.804 293.19 235.029 292.626 235.03Z" fill="#ECF1F9"/>
<path d="M257.398 237.933H202.692C201.627 237.933 200.764 238.797 200.764 239.863V240.26C200.764 241.326 201.627 242.19 202.692 242.19H257.398C258.463 242.19 259.326 241.326 259.326 240.26V239.863C259.326 238.797 258.463 237.933 257.398 237.933Z" fill="#ECF1F9"/>
<path d="M196.785 238.623C196.804 239.119 196.711 239.612 196.513 240.066C196.315 240.52 196.017 240.924 195.642 241.248C194.876 241.892 193.897 242.229 192.897 242.19C192.12 242.214 191.354 242 190.702 241.577C189.744 240.937 189.259 240.148 189.259 239.237C189.254 238.989 189.343 238.748 189.508 238.562C189.587 238.471 189.685 238.399 189.796 238.35C189.906 238.301 190.026 238.276 190.146 238.278C190.418 238.278 190.673 238.463 190.915 238.828C191.302 239.435 191.525 239.787 191.589 239.835C191.759 240.016 191.966 240.159 192.196 240.254C192.427 240.349 192.674 240.393 192.923 240.384C193.235 240.41 193.547 240.346 193.824 240.202C194.101 240.057 194.332 239.837 194.49 239.566C194.648 239.245 194.724 238.889 194.71 238.53C194.71 237.504 194.107 236.932 192.907 236.817C192.227 236.756 191.886 236.469 191.886 235.954C191.883 235.774 191.94 235.598 192.047 235.453C192.155 235.308 192.306 235.202 192.479 235.152C193.215 234.879 193.589 234.738 193.599 234.73C193.995 234.468 194.193 234.012 194.193 233.362C194.202 233.193 194.176 233.025 194.117 232.867C194.057 232.709 193.966 232.565 193.848 232.444C193.726 232.329 193.581 232.24 193.423 232.181C193.265 232.123 193.097 232.097 192.929 232.106C192.525 232.082 192.125 232.204 191.803 232.451C191.524 232.736 191.325 233.088 191.225 233.474C191.187 233.634 191.095 233.776 190.964 233.877C190.833 233.977 190.671 234.029 190.507 234.023C190.385 234.025 190.266 233.996 190.158 233.941C190.05 233.885 189.957 233.804 189.888 233.704C189.731 233.496 189.645 233.242 189.645 232.981C189.652 232.644 189.744 232.314 189.913 232.022C190.217 231.464 190.69 231.016 191.263 230.744C191.827 230.457 192.451 230.311 193.082 230.319C193.898 230.292 194.693 230.582 195.301 231.127C195.594 231.397 195.825 231.727 195.978 232.094C196.131 232.462 196.203 232.858 196.188 233.256C196.2 233.753 196.085 234.244 195.855 234.684C195.624 235.124 195.285 235.497 194.87 235.769C196.146 236.272 196.785 237.223 196.785 238.623Z" fill="#ECF1F9"/>
<path d="M281.795 115.549H226.776C226.122 115.547 225.495 115.285 225.033 114.821C224.571 114.358 224.31 113.73 224.309 113.075C224.31 112.42 224.571 111.793 225.033 111.33C225.495 110.867 226.122 110.606 226.776 110.604H281.795C282.449 110.606 283.075 110.867 283.537 111.33C284 111.793 284.26 112.42 284.262 113.075C284.26 113.73 284 114.358 283.538 114.821C283.075 115.285 282.449 115.547 281.795 115.549Z" fill="#ECF1F9"/>
<path d="M296.91 123.173H211.66C211.006 123.171 210.378 122.91 209.915 122.446C209.452 121.983 209.192 121.354 209.19 120.699C209.192 120.044 209.454 119.416 209.916 118.953C210.379 118.49 211.006 118.229 211.66 118.228H296.91C297.563 118.229 298.19 118.49 298.652 118.953C299.115 119.416 299.375 120.044 299.377 120.699C299.375 121.354 299.115 121.982 298.652 122.445C298.19 122.909 297.564 123.17 296.91 123.173Z" fill="#ECF1F9"/>
<path d="M247.664 175.761C229.054 175.761 211.392 173.421 198.224 170.078C184.921 166.702 177.769 161.179 177.769 156.282C177.769 151.845 183.61 147.763 194.656 144.48C184.056 147.626 178.407 152.248 178.407 156.282C178.407 160.757 185.748 165.194 198.543 168.428C211.651 171.775 229.099 173.61 247.664 173.61C266.229 173.61 283.677 171.775 296.814 168.441C309.612 165.194 316.949 160.77 316.949 156.295C316.949 151.554 309.223 145.663 296.782 140.916C282.637 135.524 265.186 133.523 247.68 133.523C214.807 133.523 201.256 137.359 189.508 142.185C201.316 137.346 214.676 131.861 247.68 131.861C265.269 131.861 282.787 134.846 296.993 140.264C309.679 145.097 317.559 151.235 317.559 156.282C317.559 161.179 310.234 165.737 296.932 169.116C283.776 172.459 266.277 175.761 247.664 175.761Z" fill="#2C2C2C"/>
<path d="M360.686 219.46C360.686 219.46 360.074 225.428 359.41 226.556C358.746 227.685 355.873 231.29 354.654 231.991C353.435 232.691 355.401 227.237 355.152 226.176C354.903 225.115 354.147 228.113 353.611 228.183C353.074 228.254 353.212 225.553 353.193 224.571C353.173 223.59 355.806 221.161 356.735 219.067C357.664 216.973 360.686 219.46 360.686 219.46Z" fill="#FFCCBE"/>
<path d="M287.485 164.42L286.116 161.834C286.116 161.834 286.793 157.222 281.01 154.306C281.01 154.306 278.9 153.447 277.71 155.169C276.615 156.768 279.8 156.467 279.624 159.181C279.449 161.895 280.742 163.487 282.532 164.372L284.01 166.089L287.485 164.42Z" fill="#FFCCBE"/>
<path d="M342.003 158.235C342.003 158.235 337.05 182.589 309.784 190.551C301.276 193.035 281.941 164.98 281.941 164.98C281.941 164.98 282.621 162.394 286.879 162.988C286.879 162.988 305.709 175.454 308.074 176.826C310.177 178.028 324.009 161.358 330.312 158.67C334.017 157.061 338.19 156.906 342.003 158.235Z" fill="#FCBA64"/>
<path d="M269.455 153.445L268.683 158.485L294.001 162.379L294.774 157.339L269.455 153.445Z" fill="#7398E6"/>
<path d="M263.185 155.061L268.687 158.487L269.459 153.447L263.185 155.061Z" fill="#2C2C2C"/>
<path d="M297.452 159.466L297.21 161.064C297.174 161.297 297.093 161.521 296.97 161.722C296.848 161.924 296.688 162.1 296.498 162.239C296.308 162.379 296.092 162.479 295.863 162.536C295.634 162.592 295.397 162.602 295.164 162.566L293.993 162.387L294.765 157.346L296.042 157.541C296.483 157.611 296.879 157.852 297.143 158.212C297.407 158.573 297.518 159.023 297.452 159.466Z" fill="#2C2C2C"/>
<path d="M374.55 311.327C374.55 311.327 377.934 314.418 377.273 316.614C376.612 318.81 373.561 320.274 373.149 322.959C372.738 325.644 371.084 327.115 369.6 327.115H362.522C362.522 327.115 361.43 325.225 364.069 324.656C366.709 324.087 367.705 320.933 367.539 318.005C367.47 315.724 367.553 313.44 367.788 311.171L373.395 309.87L374.55 311.327Z" fill="#2C2C2C"/>
<path d="M333.057 319.321C333.057 319.321 333.664 326.354 332.18 327.089L313.177 327.051C313.177 327.051 313.177 324.855 316.232 324.366C319.286 323.876 324.644 322.086 325.551 318.1C326.457 314.114 333.057 319.321 333.057 319.321Z" fill="#233862"/>
<path d="M317.017 219.959C317.017 219.959 318.019 232.291 319.196 247.129C320.792 267.267 322.707 291.998 322.911 296.674C323.231 304.813 324.565 317.826 324.565 317.826C324.565 317.826 327.696 320.92 333.967 319.616C333.967 319.616 339.555 301.038 341.151 281.379C341.177 281.06 341.199 280.74 341.225 280.42C342.709 260.407 345.019 218.268 345.019 218.268L317.017 219.959Z" fill="#4C4B73"/>
<path d="M317.017 219.959C317.017 219.959 318.019 232.291 319.196 247.129L341.151 281.389C341.177 281.069 341.199 280.75 341.225 280.43C342.709 260.417 345.019 218.278 345.019 218.278L317.017 219.959Z" fill="#3A3A5B"/>
<path d="M321.593 221.41C321.593 221.41 339.657 266.068 351.536 287.056C363.415 308.044 367.127 313.907 367.127 313.907C367.127 313.907 373.931 311.222 374.551 309.39C374.551 309.39 370.009 268.872 362.053 258.994C357.559 253.413 352.277 236.664 352.031 230.808C351.785 224.952 350.435 213.358 350.435 213.358L321.593 221.41Z" fill="#4C4B73"/>
<path d="M345.36 152.583C345.36 152.583 333.137 158.491 326.09 156.298C327.436 154.734 329.059 153.434 330.877 152.462C330.631 151.046 330.443 149.819 330.335 148.773C330.166 147.524 330.067 146.265 330.038 145.005L334.752 141.29L339.22 137.736C338.856 147.744 345.36 152.583 345.36 152.583Z" fill="#FFCCBE"/>
<path d="M351.801 215.644C351.83 216.392 350.231 217.242 349.526 217.562C344.295 219.86 339.415 221.461 333.887 221.998C327.357 222.666 319.63 221.196 316.972 221.25C316.701 221.245 316.441 221.14 316.241 220.956C316.049 220.822 315.922 212.936 316.049 203.021C316.049 202.621 316.049 202.218 316.078 201.819V201.685C316.132 197.807 316.266 193.748 316.458 189.685C316.838 180.757 317.54 172.149 318.734 167.393C320.17 161.78 323.422 158.065 326.377 155.364L328.816 153.226C331.376 153.782 334.048 153.462 336.405 152.318C339.223 150.957 342.258 149.486 342.747 149.86C346.433 152.558 348.926 158.625 350.253 166.376C351.044 171.237 351.416 176.156 351.364 181.08C351.364 182.998 351.31 184.983 351.201 186.933C350.563 197.516 351.201 206.713 351.581 212.032C351.709 213.585 351.776 214.787 351.801 215.644Z" fill="#FFD186"/>
<path d="M351.584 215.164C308.782 215.081 343.692 168.649 343.692 168.649L350.627 166.392C351.197 171.608 351.464 176.853 351.428 182.1C351.428 184.155 351.39 186.255 351.31 188.352C350.841 199.652 351.31 209.475 351.584 215.164Z" fill="#FCBA64"/>
<path d="M339.29 141.572C339.29 141.572 336.201 147.21 330.319 148.786C330.151 147.536 330.051 146.278 330.022 145.017L334.736 141.303L339.29 141.572Z" fill="#E98C94"/>
<path d="M327.871 144.858C327.871 144.858 339.53 146.775 340.637 139.587C341.744 132.398 343.975 127.817 336.577 126.296C329.179 124.774 327.322 127.296 326.364 129.604C325.407 131.912 324.864 144.174 327.871 144.858Z" fill="#FFCCBE"/>
<path d="M344.863 125.436C344.968 125.314 345.214 125.215 345.756 125.187C345.446 125.011 345.098 124.912 344.742 124.899C344.627 124.144 344.228 122.805 342.926 122.479C343.137 122.603 343.318 122.773 343.455 122.977C343.592 123.181 343.682 123.412 343.717 123.655C342.211 122.108 338.984 120.98 330.048 121.686C318.268 122.617 322.152 130.17 323.665 131.068C325.177 131.966 329.03 129.502 331.87 129.729C334.711 129.956 335.25 134.063 336.214 134.629C337.178 135.195 336.798 134.194 338.103 133.606C339.408 133.018 339.53 135.179 339.153 136.585C338.777 137.992 340.57 139.849 340.57 139.849L342.38 137.896C344.189 135.943 345.89 127.667 345.073 125.909C345.006 125.752 344.939 125.596 344.863 125.436Z" fill="#2C2C2C"/>
<path d="M342.744 149.806C342.744 149.806 350.123 153.322 353.659 158.686C359.148 167.028 365.506 197.437 365.624 200.24C365.742 203.043 360.983 222.935 360.983 222.935C360.983 222.935 356.155 222.615 354.92 220.176C354.92 220.176 355.877 199.748 355.274 198.44C354.671 197.133 335.138 171.053 337.347 165.485C339.555 159.916 342.744 149.806 342.744 149.806Z" fill="#FFD186"/>
<path d="M286.09 161.709C286.09 161.709 286.489 160.111 285.391 159.411C284.293 158.711 283.282 156.755 282.816 157.02C281.858 157.564 283.342 159.258 283.071 161.367C282.975 162.103 284.686 164.046 286.09 161.709Z" fill="#FFCCBE"/>
<path d="M299.453 278.084H194.394C194.055 278.084 193.731 277.949 193.491 277.709C193.252 277.47 193.117 277.144 193.117 276.805C193.117 276.466 193.252 276.141 193.491 275.901C193.731 275.661 194.055 275.527 194.394 275.527H299.453C299.792 275.527 300.116 275.661 300.356 275.901C300.595 276.141 300.73 276.466 300.73 276.805C300.73 277.144 300.595 277.47 300.356 277.709C300.116 277.949 299.792 278.084 299.453 278.084Z" fill="#ECF1F9"/>
<path d="M299.453 283.208H194.394C194.055 283.208 193.731 283.073 193.491 282.833C193.252 282.593 193.117 282.268 193.117 281.929C193.117 281.59 193.252 281.265 193.491 281.025C193.731 280.785 194.055 280.651 194.394 280.651H299.453C299.792 280.651 300.116 280.785 300.356 281.025C300.595 281.265 300.73 281.59 300.73 281.929C300.73 282.268 300.595 282.593 300.356 282.833C300.116 283.073 299.792 283.208 299.453 283.208Z" fill="#ECF1F9"/>
<path d="M299.453 288.888H194.394C194.055 288.888 193.731 288.753 193.491 288.513C193.252 288.274 193.117 287.948 193.117 287.609C193.117 287.27 193.252 286.945 193.491 286.705C193.731 286.465 194.055 286.331 194.394 286.331H299.453C299.792 286.331 300.116 286.465 300.356 286.705C300.595 286.945 300.73 287.27 300.73 287.609C300.73 287.948 300.595 288.274 300.356 288.513C300.116 288.753 299.792 288.888 299.453 288.888Z" fill="#ECF1F9"/>
<path d="M285.576 294.568H194.394C194.055 294.568 193.731 294.433 193.491 294.193C193.252 293.954 193.117 293.628 193.117 293.289C193.117 292.95 193.252 292.625 193.491 292.385C193.731 292.146 194.055 292.011 194.394 292.011H285.576C285.915 292.011 286.24 292.146 286.479 292.385C286.718 292.625 286.853 292.95 286.853 293.289C286.853 293.628 286.718 293.954 286.479 294.193C286.24 294.433 285.915 294.568 285.576 294.568Z" fill="#ECF1F9"/>
<path d="M521.445 328H0.555329C0.408047 328 0.266797 327.941 0.162652 327.837C0.0585077 327.733 0 327.591 0 327.444C0 327.296 0.0585077 327.155 0.162652 327.051C0.266797 326.946 0.408047 326.888 0.555329 326.888H521.445C521.592 326.888 521.733 326.946 521.837 327.051C521.942 327.155 522 327.296 522 327.444C522 327.591 521.942 327.733 521.837 327.837C521.733 327.941 521.592 328 521.445 328Z" fill="#2C2C2C"/>
</g>
<defs>
<clipPath id="clip0_335_517">
<rect width="522" height="329" fill="white"/>
</clipPath>
</defs>
</svg>
