<svg width="20" height="20" viewBox="0 0 64 64" fill="none" xmlns="http://www.w3.org/2000/svg">
<path d="M32 35.7333L18.9333 48.8C18.4445 49.2889 17.8222 49.5333 17.0667 49.5333C16.3111 49.5333 15.6889 49.2889 15.2 48.8C14.7111 48.3111 14.4667 47.6889 14.4667 46.9333C14.4667 46.1778 14.7111 45.5556 15.2 45.0667L28.2667 32L15.2 18.9333C14.7111 18.4445 14.4667 17.8222 14.4667 17.0667C14.4667 16.3111 14.7111 15.6889 15.2 15.2C15.6889 14.7111 16.3111 14.4667 17.0667 14.4667C17.8222 14.4667 18.4445 14.7111 18.9333 15.2L32 28.2667L45.0667 15.2C45.5556 14.7111 46.1778 14.4667 46.9333 14.4667C47.6889 14.4667 48.3111 14.7111 48.8 15.2C49.2889 15.6889 49.5333 16.3111 49.5333 17.0667C49.5333 17.8222 49.2889 18.4445 48.8 18.9333L35.7333 32L48.8 45.0667C49.2889 45.5556 49.5333 46.1778 49.5333 46.9333C49.5333 47.6889 49.2889 48.3111 48.8 48.8C48.3111 49.2889 47.6889 49.5333 46.9333 49.5333C46.1778 49.5333 45.5556 49.2889 45.0667 48.8L32 35.7333Z" fill="#E8EAED"/>
</svg>
