<svg width="64" height="64" viewBox="0 0 64 64" fill="none" xmlns="http://www.w3.org/2000/svg">
<path d="M32.0001 35.7332L18.9335 48.7999C18.4446 49.2888 17.8224 49.5332 17.0668 49.5332C16.3112 49.5332 15.689 49.2888 15.2001 48.7999C14.7112 48.311 14.4668 47.6888 14.4668 46.9332C14.4668 46.1777 14.7112 45.5554 15.2001 45.0666L28.2668 31.9999L15.2001 18.9332C14.7112 18.4443 14.4668 17.8221 14.4668 17.0666C14.4668 16.311 14.7112 15.6888 15.2001 15.1999C15.689 14.711 16.3112 14.4666 17.0668 14.4666C17.8224 14.4666 18.4446 14.711 18.9335 15.1999L32.0001 28.2666L45.0668 15.1999C45.5557 14.711 46.1779 14.4666 46.9335 14.4666C47.689 14.4666 48.3112 14.711 48.8001 15.1999C49.289 15.6888 49.5335 16.311 49.5335 17.0666C49.5335 17.8221 49.289 18.4443 48.8001 18.9332L35.7335 31.9999L48.8001 45.0666C49.289 45.5554 49.5335 46.1777 49.5335 46.9332C49.5335 47.6888 49.289 48.311 48.8001 48.7999C48.3112 49.2888 47.689 49.5332 46.9335 49.5332C46.1779 49.5332 45.5557 49.2888 45.0668 48.7999L32.0001 35.7332Z" fill="black"/>
</svg>
