<svg width="134" height="134" viewBox="0 0 134 134" fill="none" xmlns="http://www.w3.org/2000/svg">
<rect width="134" height="134" rx="67" fill="#80D54C"/>
<rect x="29" y="29" width="76" height="76" rx="38" fill="#E8EAED"/>
<path d="M60.6532 74.1069L80.9322 53.7216C81.4108 53.2405 81.9691 53 82.6072 53C83.2453 53 83.8036 53.2405 84.2822 53.7216C84.7607 54.2027 85 54.7739 85 55.4354C85 56.0969 84.7607 56.6682 84.2822 57.1492L62.3281 79.2784C61.8496 79.7595 61.2913 80 60.6532 80C60.0151 80 59.4568 79.7595 58.9782 79.2784L48.6891 68.9354C48.2106 68.4543 47.9813 67.8831 48.0012 67.2216C48.0211 66.5601 48.2704 65.9889 48.7489 65.5078C49.2275 65.0267 49.7958 64.7862 50.4538 64.7862C51.1118 64.7862 51.6801 65.0267 52.1587 65.5078L60.6532 74.1069Z" fill="#4AC000"/>
</svg>
