<svg width="134" height="134" viewBox="0 0 134 134" fill="none" xmlns="http://www.w3.org/2000/svg">
<rect width="134" height="134" rx="67" fill="#DA4444"/>
<rect x="29" y="29" width="76" height="76" rx="38" fill="#E8EAED"/>
<path d="M67 72.7143C66.15 72.7143 65.4375 72.4405 64.8625 71.8929C64.2875 71.3452 64 70.6667 64 69.8571V49.8571C64 49.0476 64.2875 48.369 64.8625 47.8214C65.4375 47.2738 66.15 47 67 47C67.85 47 68.5625 47.2738 69.1375 47.8214C69.7125 48.369 70 49.0476 70 49.8571V69.8571C70 70.6667 69.7125 71.3452 69.1375 71.8929C68.5625 72.4405 67.85 72.7143 67 72.7143ZM67 87C66.15 87 65.4375 86.7262 64.8625 86.1786C64.2875 85.631 64 84.9524 64 84.1429C64 83.3333 64.2875 82.6548 64.8625 82.1071C65.4375 81.5595 66.15 81.2857 67 81.2857C67.85 81.2857 68.5625 81.5595 69.1375 82.1071C69.7125 82.6548 70 83.3333 70 84.1429C70 84.9524 69.7125 85.631 69.1375 86.1786C68.5625 86.7262 67.85 87 67 87Z" fill="#DA4444"/>
</svg>
