<svg width="40" height="40" viewBox="0 0 40 40" fill="none" xmlns="http://www.w3.org/2000/svg">
<g clip-path="url(#clip0_266_181)">
<path d="M3.81849 0.222656C1.85322 0.222656 0.222595 1.85328 0.222595 3.81855V36.1816C0.222595 38.1468 1.85322 39.7775 3.81849 39.7775H36.1815C38.1468 39.7775 39.7774 38.1468 39.7774 36.1816V3.81855C39.7774 1.85328 38.1468 0.222656 36.1815 0.222656H3.81849ZM2.94117 5.94123C2.94117 4.28438 4.28432 2.94123 5.94117 2.94123H34.3529C36.0098 2.94123 37.3529 4.28438 37.3529 5.94123V34.353C37.3529 36.0099 36.0098 37.353 34.3529 37.353H26.8547V24.0454H31.5181L32.1923 18.6516H26.8547V15.1681C26.8547 13.5967 27.2426 12.5273 29.4954 12.5273H32.4171V7.63918C31.919 7.57266 30.188 7.47062 28.2031 7.47062C24.0607 7.47062 21.2361 9.96213 21.2361 14.6062V18.6516H16.5165V24.0454H21.2361V37.353H5.94117C4.28432 37.353 2.94117 36.0099 2.94117 34.353V5.94123Z" fill="black"/>
</g>
<defs>
<clipPath id="clip0_266_181">
<rect width="40" height="40" fill="white"/>
</clipPath>
</defs>
</svg>
