<svg width="476" height="386" viewBox="0 0 476 386" fill="none" xmlns="http://www.w3.org/2000/svg">
<g clip-path="url(#clip0_335_612)">
<path d="M17.6878 201.468C39.9339 226.664 68.0977 236.424 81.9714 266.999C91.4835 287.966 87.0124 312.778 94.0259 334.699C103.659 364.747 135.329 384.926 166.89 385.09C198.451 385.254 228.533 367.322 247.261 341.929C253.409 333.603 258.735 324.237 267.337 318.486C279.677 310.27 295.666 311.321 310.438 310.007C328.682 308.251 346.315 302.498 362.083 293.159C377.851 283.819 391.366 271.121 401.669 255.967C401.669 255.967 454.402 193.767 417.077 104.793C406.217 78.929 388.584 55.1683 364.376 41.0806C340.169 26.9928 297.978 26.5437 272.959 39.3388C246.406 52.9226 228.752 82.7083 199.646 89.2482C182.78 93.0386 165.356 88.1528 148.37 84.8664C124.546 80.3421 100.25 77.5377 76.1852 80.5941C47.868 84.2529 19.2987 98.3954 6.09347 130.263C1.42722 141.439 -0.0887423 153.68 1.71 165.657C3.4086 176.426 7.57289 190.009 17.6878 201.468Z" fill="#F5F5FF"/>
<path d="M236.544 17.6485C230.429 9.98022 220.884 5.77362 211.339 3.40742C198.188 0.121013 184.03 -0.0980804 171.263 4.50288C158.496 9.10385 147.307 18.7987 142.595 31.5062C137.883 44.2136 140.48 59.7473 150.266 69.1574C155.889 74.3942 163.304 77.2828 170.989 77.231C175.48 77.7434 180.029 77.1801 184.26 75.5878C193.63 71.9727 200.512 63.7896 209.465 59.2982C219.229 54.4343 231.788 53.6565 238.396 44.9804C244.368 37.1478 242.67 25.3387 236.544 17.6485Z" fill="#F5F5FF"/>
<path d="M60.4818 289.905C59.4205 287.847 58.5546 285.694 57.8955 283.475C55.912 276.31 57.3476 268.138 53.512 261.773C48.6793 253.787 36.7781 252.32 28.6797 256.975C20.5812 261.631 15.9457 270.723 13.9731 279.849C12.7567 285.468 12.406 291.461 14.3238 296.872C16.5155 303.171 21.6661 308.068 27.2222 311.792C33.3919 315.933 40.6027 318.968 48.0437 318.716C51.3853 318.598 54.6581 317.734 57.6215 316.185C59.9387 315.216 61.9471 313.633 63.4296 311.606C64.4725 310.382 65.3258 309.008 65.9611 307.531C68.5912 301.331 66.2131 293.159 60.4818 289.905Z" fill="#F5F5FF"/>
<path d="M353.33 132.629H121.28C119.095 132.629 117.324 134.399 117.324 136.583V285.425C117.324 287.609 119.095 289.379 121.28 289.379H353.33C355.515 289.379 357.286 287.609 357.286 285.425V136.583C357.286 134.399 355.515 132.629 353.33 132.629Z" fill="#7B70EE"/>
<path d="M351.347 144.033H123.264V274.185H351.347V144.033Z" fill="#D5CBFB"/>
<path d="M238.735 137.865C238.735 138.149 238.651 138.426 238.493 138.662C238.336 138.898 238.112 139.082 237.849 139.191C237.587 139.3 237.298 139.328 237.02 139.273C236.741 139.217 236.486 139.081 236.285 138.88C236.084 138.679 235.947 138.423 235.892 138.145C235.836 137.867 235.865 137.578 235.974 137.316C236.082 137.054 236.266 136.83 236.502 136.672C236.738 136.514 237.016 136.43 237.3 136.43C237.681 136.43 238.046 136.581 238.315 136.85C238.584 137.119 238.735 137.485 238.735 137.865Z" fill="#D5CBFB"/>
<path d="M389.582 340.527L360.103 293.63C359.286 292.333 358.154 291.263 356.813 290.52C355.472 289.777 353.965 289.385 352.432 289.379H122.201C120.668 289.386 119.161 289.779 117.821 290.522C116.48 291.265 115.348 292.334 114.53 293.63L85.0291 340.527C84.2147 341.832 83.9068 343.391 84.1633 344.908H390.447C390.704 343.391 390.396 341.832 389.582 340.527Z" fill="#D5CBFB"/>
<path d="M84.1631 344.974C84.2088 345.29 84.2822 345.602 84.3823 345.905L84.8425 347.297C85.2675 348.554 86.0769 349.646 87.1565 350.419C88.2361 351.191 89.5312 351.605 90.8588 351.602H383.751C385.08 351.601 386.375 351.183 387.452 350.407C388.53 349.63 389.336 348.534 389.757 347.275L390.217 345.883C390.321 345.58 390.398 345.269 390.447 344.952L84.1631 344.974Z" fill="#7B70EE"/>
<path d="M133.291 312.515L134.727 309.361H127.625L126.102 312.515H133.291Z" fill="#7B70EE"/>
<path d="M145.806 303.533L146.507 301.889L147.154 300.378H140.283L138.847 303.533H145.806Z" fill="#7B70EE"/>
<path d="M136.195 309.361L134.759 312.515H141.959L143.307 309.361H136.195Z" fill="#7B70EE"/>
<path d="M135.329 308.024L136.765 304.869H129.784L128.272 308.024H135.329Z" fill="#7B70EE"/>
<path d="M279.94 300.378L280.729 303.533H286.844L285.956 300.378H279.94Z" fill="#7B70EE"/>
<path d="M170.353 309.361L169.389 312.515H176.654L177.575 309.361H170.353Z" fill="#7B70EE"/>
<path d="M161.86 309.361L160.731 312.515H167.997L168.961 309.361H161.86Z" fill="#7B70EE"/>
<path d="M153.335 309.361L152.063 312.515H159.307L160.447 309.361H153.335Z" fill="#7B70EE"/>
<path d="M144.765 309.361L143.417 312.515H150.628L151.888 309.361H144.765Z" fill="#7B70EE"/>
<path d="M287.348 300.378L288.225 303.533H293.934L293.014 300.378H287.348Z" fill="#7B70EE"/>
<path d="M194.912 304.869L194.123 308.024H199.865L200.577 304.869H194.912Z" fill="#7B70EE"/>
<path d="M257.212 300.378L257.749 303.533H264.379L263.754 300.378H257.212Z" fill="#7B70EE"/>
<path d="M193.871 303.533L194.671 300.378H188.643L187.767 303.533H193.871Z" fill="#7B70EE"/>
<path d="M186.375 303.533L187.262 300.378H181.597L180.676 303.533H186.375Z" fill="#7B70EE"/>
<path d="M200.873 303.533L201.586 300.378H196.04L195.251 303.533H200.873Z" fill="#7B70EE"/>
<path d="M294.405 300.378L295.326 303.533H302.471L301.496 300.378H294.405Z" fill="#7B70EE"/>
<path d="M165.104 300.378L163.964 303.533H170.748L171.241 301.911L171.712 300.378H165.104Z" fill="#7B70EE"/>
<path d="M162.54 303.533L163.679 300.378H156.929L155.668 303.533H162.54Z" fill="#7B70EE"/>
<path d="M148.6 300.378L147.252 303.533H154.233L154.891 301.889L155.493 300.378H148.6Z" fill="#7B70EE"/>
<path d="M273.025 300.378L273.738 303.533H279.349L278.56 300.378H273.025Z" fill="#7B70EE"/>
<path d="M265.113 300.378L265.737 303.533H272.367L271.655 300.378H265.113Z" fill="#7B70EE"/>
<path d="M179.285 303.533L180.205 300.378H173.104L172.14 303.533H179.285Z" fill="#7B70EE"/>
<path d="M187.635 299.041L188.446 296.105H182.846L181.98 299.041H187.635Z" fill="#7B70EE"/>
<path d="M180.589 299.041L181.454 296.105H174.419L173.509 299.041H180.589Z" fill="#7B70EE"/>
<path d="M249.409 300.378L249.782 303.533H256.401L255.864 300.378H249.409Z" fill="#7B70EE"/>
<path d="M209.749 299.041L210.33 296.105H203.909L203.251 299.041H209.749Z" fill="#7B70EE"/>
<path d="M201.881 299.041L202.539 296.105H197.125L196.38 299.041H201.881Z" fill="#7B70EE"/>
<path d="M195 299.041L195.745 296.105H189.838L189.016 299.041H195Z" fill="#7B70EE"/>
<path d="M327.457 300.378L328.805 303.533H335.764L334.328 300.378H327.457Z" fill="#7B70EE"/>
<path d="M147.723 299.041L148.984 296.105H142.222L140.885 299.041H147.723Z" fill="#7B70EE"/>
<path d="M156.03 299.041L157.203 296.105H150.43L149.181 299.041H156.03Z" fill="#7B70EE"/>
<path d="M172.118 299.041L173.016 296.105H166.638L165.575 299.041H172.118Z" fill="#7B70EE"/>
<path d="M335.796 300.378L337.232 303.533H344.169L342.656 300.378H335.796Z" fill="#7B70EE"/>
<path d="M164.162 299.041L165.214 296.105H158.649L157.466 299.041H164.162Z" fill="#7B70EE"/>
<path d="M302.898 300.378L303.863 303.533H310.646L309.507 300.378H302.898Z" fill="#7B70EE"/>
<path d="M209.07 309.361L208.446 312.515H215.317L215.854 309.361H209.07Z" fill="#7B70EE"/>
<path d="M178.967 309.361L178.046 312.515H183.876L184.753 309.361H178.967Z" fill="#7B70EE"/>
<path d="M200.928 309.361L200.227 312.515H207.087L207.711 309.361H200.928Z" fill="#7B70EE"/>
<path d="M186.144 309.361L185.257 312.515H191.613L192.402 309.361H186.144Z" fill="#7B70EE"/>
<path d="M193.783 309.361L192.994 312.515H198.857L199.558 309.361H193.783Z" fill="#7B70EE"/>
<path d="M218.747 300.378L218.21 303.533H224.829L225.191 300.378H218.747Z" fill="#7B70EE"/>
<path d="M217.618 299.041L218.122 296.105H211.689L211.108 299.041H217.618Z" fill="#7B70EE"/>
<path d="M209.958 304.869L209.333 308.024H216.084L216.621 304.869H209.958Z" fill="#7B70EE"/>
<path d="M319.117 300.378L320.377 303.533H327.347L325.999 300.378H319.117Z" fill="#7B70EE"/>
<path d="M224.303 308.024L224.665 304.869H217.98L217.443 308.024H224.303Z" fill="#7B70EE"/>
<path d="M310.92 300.378L312.06 303.533H318.942L317.671 300.378H310.92Z" fill="#7B70EE"/>
<path d="M137.378 303.533L138.814 300.378H131.954L130.431 303.533H137.378Z" fill="#7B70EE"/>
<path d="M289.343 312.515L288.466 309.361H282.198L282.998 312.515H289.343Z" fill="#7B70EE"/>
<path d="M187.394 304.869L186.517 308.024H192.742L193.531 304.869H187.394Z" fill="#7B70EE"/>
<path d="M301.09 299.041L300.192 296.105H293.156L294.011 299.041H301.09Z" fill="#7B70EE"/>
<path d="M317.134 299.041L315.961 296.105H309.386L310.449 299.041H317.134Z" fill="#7B70EE"/>
<path d="M309.024 299.041L307.972 296.105H301.594L302.493 299.041H309.024Z" fill="#7B70EE"/>
<path d="M271.349 299.041L270.691 296.105H264.28L264.85 299.041H271.349Z" fill="#7B70EE"/>
<path d="M263.491 299.041L262.91 296.105H256.488L256.992 299.041H263.491Z" fill="#7B70EE"/>
<path d="M325.43 299.041L324.169 296.105H317.397L318.58 299.041H325.43Z" fill="#7B70EE"/>
<path d="M285.584 299.041L284.773 296.105H278.866L279.6 299.041H285.584Z" fill="#7B70EE"/>
<path d="M278.219 299.041L277.485 296.105H272.061L272.718 299.041H278.219Z" fill="#7B70EE"/>
<path d="M281.617 312.515L280.817 309.361H275.042L275.754 312.515H281.617Z" fill="#7B70EE"/>
<path d="M331.194 312.515L329.846 309.361H322.712L323.972 312.515H331.194Z" fill="#7B70EE"/>
<path d="M313.879 312.515L312.739 309.361H305.649L306.613 312.515H313.879Z" fill="#7B70EE"/>
<path d="M348.497 312.515L346.974 309.361H339.884L341.319 312.515H348.497Z" fill="#7B70EE"/>
<path d="M339.851 312.515L338.416 309.361H331.292L332.64 312.515H339.851Z" fill="#7B70EE"/>
<path d="M322.537 312.515L321.265 309.361H314.164L315.293 312.515H322.537Z" fill="#7B70EE"/>
<path d="M274.384 312.515L273.672 309.361H266.899L267.524 312.515H274.384Z" fill="#7B70EE"/>
<path d="M333.714 299.041L332.378 296.105H325.627L326.876 299.041H333.714Z" fill="#7B70EE"/>
<path d="M345.659 303.533H352.07L350.284 300.378H344.136L345.659 303.533Z" fill="#7B70EE"/>
<path d="M296.564 312.515L295.633 309.361H289.847L290.734 312.515H296.564Z" fill="#7B70EE"/>
<path d="M342.01 299.041L340.596 296.105H333.846L335.183 299.041H342.01Z" fill="#7B70EE"/>
<path d="M305.211 312.515L304.246 309.361H297.024L297.956 312.515H305.211Z" fill="#7B70EE"/>
<path d="M349.528 299.041L347.862 296.105H342.076L343.489 299.041H349.528Z" fill="#7B70EE"/>
<path d="M292.619 299.041L291.765 296.105H286.154L286.976 299.041H292.619Z" fill="#7B70EE"/>
<path d="M249.486 312.515L249.113 309.361H242.188L242.319 312.515H249.486Z" fill="#7B70EE"/>
<path d="M146.682 304.869L145.981 306.512L145.334 308.024H152.425L153.696 304.869H146.682Z" fill="#7B70EE"/>
<path d="M257.168 308.024L256.631 304.869H249.935L250.308 308.024H257.168Z" fill="#7B70EE"/>
<path d="M143.877 308.024L145.236 304.869H138.233L137.488 306.523L136.798 308.024H143.877Z" fill="#7B70EE"/>
<path d="M202.955 300.378L202.243 303.533H208.862L209.487 300.378H202.955Z" fill="#7B70EE"/>
<path d="M210.845 300.378L210.221 303.533H216.851L217.388 300.378H210.845Z" fill="#7B70EE"/>
<path d="M171.734 304.869L170.77 308.024H177.969L178.89 304.869H171.734Z" fill="#7B70EE"/>
<path d="M155.132 304.869L153.872 308.024H160.929L162.058 304.869H155.132Z" fill="#7B70EE"/>
<path d="M180.282 304.869L179.361 308.024H185.126L186.002 304.869H180.282Z" fill="#7B70EE"/>
<path d="M242.001 304.869L242.132 308.024H248.96L248.587 304.869H242.001Z" fill="#7B70EE"/>
<path d="M163.482 304.869L162.342 308.024H169.367L170.331 304.869H163.482Z" fill="#7B70EE"/>
<path d="M247.908 299.041L247.568 296.105H241.65L241.771 299.041H247.908Z" fill="#7B70EE"/>
<path d="M266.154 312.515L265.53 309.361H258.746L259.283 312.515H266.154Z" fill="#7B70EE"/>
<path d="M234.286 296.105L234.177 299.041H240.434L240.314 296.105H234.286Z" fill="#7B70EE"/>
<path d="M234.122 300.378L233.99 303.533H240.609L240.489 300.378H234.122Z" fill="#7B70EE"/>
<path d="M248.434 303.533L248.072 300.378H241.826L241.946 303.533H248.434Z" fill="#7B70EE"/>
<path d="M255.634 299.041L255.13 296.105H248.916L249.256 299.041H255.634Z" fill="#7B70EE"/>
<path d="M233.936 304.869L233.804 308.024H240.796L240.664 304.869H233.936Z" fill="#7B70EE"/>
<path d="M233.76 309.361L233.629 312.515H240.971L240.851 309.361H233.76Z" fill="#7B70EE"/>
<path d="M232.84 299.041L232.949 296.105H227.032L226.692 299.041H232.84Z" fill="#7B70EE"/>
<path d="M218.977 299.041H225.344L225.684 296.105H219.47L218.977 299.041Z" fill="#7B70EE"/>
<path d="M265.267 308.024L264.642 304.869H257.979L258.516 308.024H265.267Z" fill="#7B70EE"/>
<path d="M201.947 304.869L201.235 308.024H207.974L208.599 304.869H201.947Z" fill="#7B70EE"/>
<path d="M116.7 313.852L115.144 316.613H122.65L123.976 313.852H116.7Z" fill="#7B70EE"/>
<path d="M295.25 308.024L294.329 304.869H288.598L289.485 308.024H295.25Z" fill="#7B70EE"/>
<path d="M291.107 313.852L291.874 316.613H297.759L296.948 313.852H291.107Z" fill="#7B70EE"/>
<path d="M280.488 308.024L279.688 304.869H274.033L274.746 308.024H280.488Z" fill="#7B70EE"/>
<path d="M232.292 312.515L232.423 309.361H225.487L225.125 312.515H232.292Z" fill="#7B70EE"/>
<path d="M315.775 313.852L316.772 316.613H324.18L323.073 313.852H315.775Z" fill="#7B70EE"/>
<path d="M337.802 308.024L336.366 304.869H329.375L330.722 308.024H337.802Z" fill="#7B70EE"/>
<path d="M324.509 313.852L325.616 316.613H332.947L331.763 313.852H324.509Z" fill="#7B70EE"/>
<path d="M217.213 309.361L216.676 312.515H223.777L224.15 309.361H217.213Z" fill="#7B70EE"/>
<path d="M119.242 309.361L117.456 312.515H124.623L126.135 309.361H119.242Z" fill="#7B70EE"/>
<path d="M250.976 313.852L251.305 316.613H258.625L258.154 313.852H250.976Z" fill="#7B70EE"/>
<path d="M142.847 313.852L141.664 316.613H148.984L150.091 313.852H142.847Z" fill="#7B70EE"/>
<path d="M232.237 313.852H224.971L224.653 316.613H232.127L232.237 313.852Z" fill="#7B70EE"/>
<path d="M329.265 308.024L327.917 304.869H320.915L322.175 308.024H329.265Z" fill="#7B70EE"/>
<path d="M125.455 313.852L124.129 316.613H131.428L132.688 313.852H125.455Z" fill="#7B70EE"/>
<path d="M266 304.869L266.636 308.024H273.376L272.663 304.869H266Z" fill="#7B70EE"/>
<path d="M298.34 313.852L299.151 316.613H306.471L305.616 313.852H298.34Z" fill="#7B70EE"/>
<path d="M267.787 313.852L268.324 316.613H275.305L274.68 313.852H267.787Z" fill="#7B70EE"/>
<path d="M303.841 308.024L302.877 304.869H295.721L296.641 308.024H303.841Z" fill="#7B70EE"/>
<path d="M312.257 308.024L311.129 304.869H304.269L305.233 308.024H312.257Z" fill="#7B70EE"/>
<path d="M259.513 313.852L259.984 316.613H266.965L266.417 313.852H259.513Z" fill="#7B70EE"/>
<path d="M307.019 313.852L307.863 316.613H315.348L314.361 313.852H307.019Z" fill="#7B70EE"/>
<path d="M124.327 300.378L122.541 303.533H128.951L130.464 300.378H124.327Z" fill="#7B70EE"/>
<path d="M341.922 313.852L343.183 316.613H350.47L349.144 313.852H341.922Z" fill="#7B70EE"/>
<path d="M126.738 296.105L125.083 299.041H131.11L132.524 296.105H126.738Z" fill="#7B70EE"/>
<path d="M320.739 308.024L319.468 304.869H312.542L313.682 308.024H320.739Z" fill="#7B70EE"/>
<path d="M214.626 316.613L215.086 313.852H151.537L150.43 316.613H214.626Z" fill="#7B70EE"/>
<path d="M276.05 313.852L276.674 316.613H282.647L281.957 313.852H276.05Z" fill="#7B70EE"/>
<path d="M226.166 303.533H232.654L232.785 300.378H226.539L226.166 303.533Z" fill="#7B70EE"/>
<path d="M355.358 309.361H348.465L351.961 316.613H359.467L355.358 309.361Z" fill="#7B70EE"/>
<path d="M347.818 308.024H354.601L352.815 304.869H346.306L347.818 308.024Z" fill="#7B70EE"/>
<path d="M346.339 308.024L344.816 304.869H337.835L339.271 308.024H346.339Z" fill="#7B70EE"/>
<path d="M223.305 316.613L223.623 313.852H216.445L215.974 316.613H223.305Z" fill="#7B70EE"/>
<path d="M233.574 313.852L233.464 316.613H249.957L249.639 313.852H233.574Z" fill="#7B70EE"/>
<path d="M333.221 313.852L334.394 316.613H341.714L340.454 313.852H333.221Z" fill="#7B70EE"/>
<path d="M288.093 308.024L287.217 304.869H281.069L281.869 308.024H288.093Z" fill="#7B70EE"/>
<path d="M283.326 313.852L284.028 316.613H290.493L289.715 313.852H283.326Z" fill="#7B70EE"/>
<path d="M121.784 304.869L119.998 308.024H126.781L128.305 304.869H121.784Z" fill="#7B70EE"/>
<path d="M139.417 299.041L140.754 296.105H134.014L132.601 299.041H139.417Z" fill="#7B70EE"/>
<path d="M134.146 313.852L132.896 316.613H140.206L141.389 313.852H134.146Z" fill="#7B70EE"/>
<path d="M232.467 308.024L232.599 304.869H226.013L225.651 308.024H232.467Z" fill="#7B70EE"/>
<path d="M257.398 309.361H250.461L250.823 312.515H257.935L257.398 309.361Z" fill="#7B70EE"/>
<path d="M279.173 340.143H195.427C195.249 340.152 195.072 340.118 194.911 340.043C194.75 339.968 194.609 339.855 194.501 339.714C194.393 339.573 194.321 339.407 194.292 339.232C194.262 339.057 194.275 338.877 194.331 338.708L199.646 321.411C199.716 321.178 199.862 320.975 200.06 320.834C200.259 320.693 200.499 320.623 200.742 320.633H273.869C274.112 320.623 274.352 320.693 274.55 320.834C274.749 320.975 274.894 321.178 274.965 321.411L280.291 338.708C280.346 338.877 280.359 339.057 280.33 339.232C280.3 339.407 280.228 339.573 280.12 339.714C280.012 339.855 279.872 339.968 279.711 340.043C279.549 340.118 279.372 340.152 279.195 340.143H279.173ZM200.753 321.619C200.727 321.618 200.702 321.627 200.682 321.643C200.662 321.659 200.648 321.681 200.643 321.706L195.317 339.004C195.308 339.019 195.304 339.036 195.304 339.053C195.304 339.07 195.308 339.088 195.317 339.102C195.326 339.118 195.339 339.131 195.354 339.141C195.369 339.15 195.387 339.156 195.405 339.157H279.151C279.171 339.157 279.19 339.152 279.207 339.142C279.224 339.133 279.239 339.119 279.25 339.102C279.258 339.088 279.263 339.07 279.263 339.053C279.263 339.036 279.258 339.019 279.25 339.004L273.935 321.706C273.926 321.681 273.91 321.66 273.888 321.644C273.866 321.628 273.841 321.62 273.814 321.619H200.753Z" fill="#7B70EE"/>
<path d="M277.968 163.981L187 178.321L274.461 222.063L365.056 208.589L277.968 163.981Z" fill="#1C1C84"/>
<path d="M187 178.321V180.391L274.526 226.116L365.056 210.582V208.589L274.461 222.063L187 178.321Z" fill="#2525AD"/>
<path d="M220.84 227.529L219.448 236.775C219.448 236.775 256.795 266.758 309.463 252.013L310.274 244.794C263.721 252.582 234.418 237.498 220.84 227.529Z" fill="#2525AD"/>
<path d="M331.742 276.212C326.868 272.195 323.38 266.75 321.769 260.645C321.649 260.207 321.046 260.36 320.98 260.744C320.552 260.671 320.12 260.62 319.687 260.59C316.345 267.075 318.931 274.382 321.167 280.791C321.342 281.295 321.901 281.032 321.715 280.517C319.972 275.511 318.098 269.891 319.161 264.611C318.668 271.374 320.702 278.08 324.871 283.431C325.167 283.814 325.627 283.354 325.331 282.971C321.62 278.1 319.7 272.1 319.895 265.98C319.985 268.371 320.406 270.737 321.145 273.013C322.446 276.469 324.157 279.757 326.24 282.806C326.525 283.267 326.986 282.806 326.69 282.346C324.778 279.405 323.208 276.255 322.01 272.958C321.502 271.537 321.135 270.069 320.915 268.576C322.042 273.469 324.399 277.994 327.764 281.722C328.125 282.105 328.597 281.722 328.235 281.36C324.61 277.236 322.237 272.162 321.397 266.736C322.833 271.802 325.307 276.513 328.662 280.572C328.991 280.988 329.342 280.572 329.002 280.123C325.854 276.119 323.574 271.504 322.306 266.572C324.104 271.633 326.438 276.507 330.547 280.112C330.953 280.462 331.391 280.112 330.986 279.695C328.292 277.117 326.178 273.995 324.783 270.537C326.428 273.477 328.418 276.209 330.712 278.676C331.073 279.071 331.38 278.446 331.018 278.063C329.076 275.875 327.375 273.484 325.945 270.932C327.491 273.014 329.299 274.888 331.325 276.507C331.709 276.836 332.158 276.54 331.742 276.212Z" fill="#F0C64B"/>
<path d="M323.183 206.211C321.202 204.045 318.781 202.327 316.082 201.172C310.865 198.642 305.057 197.535 299.392 196.462C291.381 194.95 283.195 193.548 276.543 188.509C276.495 188.467 276.439 188.437 276.378 188.419C276.317 188.402 276.254 188.398 276.191 188.407C276.129 188.416 276.069 188.439 276.016 188.474C275.964 188.508 275.919 188.554 275.885 188.607C275.793 188.703 275.742 188.831 275.742 188.963C275.742 189.096 275.793 189.223 275.885 189.319C280.773 193.986 287.293 196.286 293.715 197.919C300.137 199.551 306.865 200.679 313.035 203.254L313.616 203.495L313.857 203.604L314.799 204.075C315.969 204.63 317.094 205.274 318.164 206.003C319.471 206.865 320.589 207.983 321.451 209.29C322.301 210.741 322.709 212.408 322.624 214.088C322.534 215.854 322.318 217.611 321.977 219.346C321.681 221.143 321.408 222.95 321.134 224.758C320.564 228.493 320.038 232.229 319.621 235.975C318.552 244.25 318.674 252.635 319.983 260.875C320.092 261.489 321.079 261.346 321.079 260.733C320.623 252.94 321.009 245.121 322.229 237.41C322.777 233.565 323.435 229.742 324.103 225.919C324.739 222.326 325.572 218.711 325.868 215.074C326.027 213.492 325.872 211.895 325.411 210.374C324.95 208.853 324.193 207.439 323.183 206.211Z" fill="#F0C64B"/>
<path d="M319.523 261.565L319.808 261.434H319.884H320.016C320.224 261.37 320.436 261.322 320.651 261.291H320.805H321.484H321.638H321.714C321.853 261.341 322.004 261.341 322.142 261.291C322.204 261.258 322.26 261.213 322.305 261.159C322.35 261.104 322.384 261.041 322.405 260.974C322.45 260.833 322.437 260.68 322.369 260.548C322.301 260.417 322.184 260.318 322.043 260.273C321.014 260.075 319.949 260.217 319.008 260.678C318.943 260.711 318.886 260.757 318.84 260.813C318.793 260.869 318.758 260.933 318.737 261.002C318.715 261.072 318.708 261.144 318.715 261.217C318.722 261.289 318.743 261.359 318.777 261.423C318.849 261.549 318.966 261.643 319.105 261.685C319.243 261.728 319.392 261.716 319.523 261.653V261.565Z" fill="#D8A32B"/>
<path d="M319.413 260.481L319.698 260.349C319.753 260.349 319.764 260.349 319.698 260.349H319.786H319.917C320.125 260.285 320.338 260.238 320.553 260.207H320.706H321.013H321.331H321.572C321.495 260.207 321.495 260.207 321.572 260.207C321.709 260.261 321.862 260.261 321.999 260.207C322.127 260.136 322.221 260.018 322.262 259.878C322.284 259.809 322.293 259.737 322.286 259.664C322.28 259.592 322.259 259.522 322.226 259.458C322.192 259.394 322.146 259.337 322.09 259.29C322.035 259.244 321.97 259.209 321.901 259.188C320.873 258.982 319.806 259.12 318.865 259.583C318.801 259.616 318.744 259.662 318.698 259.718C318.652 259.774 318.617 259.838 318.596 259.907C318.574 259.977 318.567 260.049 318.574 260.121C318.58 260.193 318.601 260.263 318.635 260.327C318.669 260.391 318.715 260.448 318.771 260.494C318.827 260.541 318.891 260.575 318.96 260.597C319.029 260.618 319.102 260.626 319.174 260.619C319.246 260.612 319.316 260.591 319.38 260.557L319.413 260.481Z" fill="#D8A32B"/>
<path d="M313.002 223.038L313.463 219.445L274.526 226.116L225.53 200.526L224.478 206.573L273.551 231.265L313.002 223.038Z" fill="#0C0C5B"/>
<path d="M273.551 231.265L224.478 206.573L220.84 227.529C234.407 237.498 263.721 252.582 310.274 244.794L313.002 223.038L273.551 231.265Z" fill="#1C1C84"/>
<path d="M214.067 259.703C216.259 265.553 211.569 272.684 203.635 275.62C195.701 278.556 191.186 274.853 188.008 269.486C183.372 261.62 187.843 257.381 195.777 254.445C203.712 251.509 211.887 253.853 214.067 259.703Z" fill="#FFF6DC"/>
<path d="M134.891 195.29C134.891 195.29 154.562 215.545 170.682 251.903C170.682 251.903 178.353 271.622 183.35 276.573C183.35 276.573 179.296 272.005 185.487 264.698C187.746 262.032 190.534 259.865 193.675 258.333C196.816 256.802 200.241 255.94 203.733 255.803C207.657 255.661 211.766 256.482 214.1 259.78C214.1 259.78 187.865 228.877 170.715 202.224C163.866 191.565 160.622 182.768 159.197 176.042C158.093 174.878 156.781 173.931 155.329 173.249C145.861 168.571 134.716 174.859 133.061 185.299C132.899 186.328 132.807 187.368 132.787 188.41C132.787 188.41 132.644 193.022 134.891 195.29Z" fill="white"/>
<path d="M183.35 276.573C183.35 276.573 191.964 286.958 211.47 274.492C211.47 274.492 223.525 266.451 217.52 252.418C209.346 246.154 201.84 239.066 195.12 231.265C182.323 216.302 171.499 199.761 162.912 182.045L160.326 180.49C160.326 180.49 162.189 190.59 174.244 207.603C186.298 224.615 208.544 253.108 208.544 253.108L211.953 257.205C212.929 258.354 213.585 259.739 213.857 261.221C214.128 262.704 214.004 264.232 213.498 265.651C211.953 269.716 207.448 274.547 194.868 275.281L187 263.077C187 263.077 179.372 269.387 183.35 276.573Z" fill="#F4E7BD"/>
<path d="M202.396 239.174C202.396 239.174 179.8 215.61 163.953 178.321C162.518 176.023 160.956 173.807 159.274 171.682C159.274 171.682 173.049 214.241 202.396 239.174Z" fill="white"/>
<path d="M160.83 232.338C163.351 228.032 166.985 224.482 171.35 222.061C175.715 219.641 180.651 218.438 185.64 218.579C189.125 218.754 189.114 214.427 185.64 214.197C174.035 213.617 162.539 219.412 156.907 229.534C156.907 229.534 159.098 235.307 160.83 232.262V232.338Z" fill="#F0C64B"/>
<path d="M125.806 203.626H81.4457C75.5386 203.626 70.75 208.413 70.75 214.318V237.41C70.75 243.315 75.5386 248.102 81.4457 248.102H125.806C131.713 248.102 136.502 243.315 136.502 237.41V214.318C136.502 208.413 131.713 203.626 125.806 203.626Z" fill="#2525AD"/>
<path d="M96.5684 225.864V217.714L103.626 221.789L110.683 225.864L103.626 229.939L96.5684 234.014V225.864Z" fill="#D5CBFB"/>
<path d="M90.7821 149.981C90.7836 145.576 89.6014 141.251 87.359 137.459C85.1167 133.667 81.8966 130.546 78.0352 128.423C74.1738 126.301 69.8129 125.254 65.4083 125.392C61.0036 125.53 56.717 126.848 52.9963 129.209C49.2757 131.569 46.2576 134.886 44.2575 138.811C42.2574 142.736 41.3488 147.127 41.6266 151.523C41.9043 155.919 43.3583 160.16 45.8365 163.803C48.3147 167.446 51.7262 170.356 55.7143 172.23V180.074H76.6125V172.23C80.8458 170.251 84.4271 167.108 86.9367 163.167C89.4464 159.226 90.7803 154.652 90.7821 149.981Z" fill="white"/>
<path d="M77.3142 184.16H55.0571C54.5195 184.16 54.0038 183.946 53.6236 183.566C53.2434 183.186 53.0298 182.67 53.0298 182.133C53.0298 181.595 53.2434 181.08 53.6236 180.7C54.0038 180.32 54.5195 180.106 55.0571 180.106H77.3142C77.8519 180.106 78.3676 180.32 78.7478 180.7C79.128 181.08 79.3416 181.595 79.3416 182.133C79.3416 182.67 79.128 183.186 78.7478 183.566C78.3676 183.946 77.8519 184.16 77.3142 184.16Z" fill="#F0C64B"/>
<path d="M58.0488 186.186H74.3115V187.534C74.3115 188.601 74.1012 189.658 73.6925 190.644C73.2839 191.63 72.685 192.526 71.9299 193.281C71.1748 194.036 70.2784 194.635 69.2919 195.043C68.3054 195.452 67.248 195.662 66.1802 195.662C64.0236 195.662 61.9554 194.806 60.4304 193.281C58.9055 191.757 58.0488 189.689 58.0488 187.534V186.186Z" fill="#F0C64B"/>
<path d="M77.3142 188.213H55.0571C54.5195 188.213 54.0038 187.999 53.6236 187.619C53.2434 187.239 53.0298 186.724 53.0298 186.186C53.0298 185.649 53.2434 185.133 53.6236 184.753C54.0038 184.373 54.5195 184.16 55.0571 184.16H77.3142C77.8519 184.16 78.3676 184.373 78.7478 184.753C79.128 185.133 79.3416 185.649 79.3416 186.186C79.3416 186.724 79.128 187.239 78.7478 187.619C78.3676 187.999 77.8519 188.213 77.3142 188.213Z" fill="#D8A32B"/>
<path d="M68.4264 180.106H67.2648V145.95C67.2648 145.659 67.1494 145.381 66.9438 145.175C66.7383 144.97 66.4596 144.854 66.169 144.854C65.8783 144.854 65.5996 144.97 65.3941 145.175C65.1885 145.381 65.0731 145.659 65.0731 145.95V180.106H63.9443V145.95C63.9443 145.356 64.1804 144.786 64.6007 144.366C65.021 143.945 65.591 143.709 66.1854 143.709C66.7798 143.709 67.3498 143.945 67.7701 144.366C68.1903 144.786 68.4264 145.356 68.4264 145.95V180.106Z" fill="#F0C64B"/>
<path d="M27.5286 141.634L26.8491 145.15L37.1284 147.122C37.2679 145.931 37.4765 144.75 37.753 143.583L27.5286 141.634Z" fill="#7B70EE"/>
<path d="M35.6712 125.421L33.4795 128.28L41.6766 134.491C42.3462 133.486 43.0783 132.524 43.8683 131.61L35.6712 125.421Z" fill="#7B70EE"/>
<path d="M50.0378 114.477L46.8379 116.087L51.4077 125.223C52.4697 124.617 53.5676 124.075 54.6953 123.602L50.0378 114.477Z" fill="#7B70EE"/>
<path d="M105.522 145.15L104.842 141.634L94.6069 143.583C94.8924 144.749 95.1046 145.93 95.2425 147.122L105.522 145.15Z" fill="#7B70EE"/>
<path d="M98.8698 128.28L96.6781 125.421L88.5029 131.61C89.2896 132.526 90.0215 133.488 90.6947 134.491L98.8698 128.28Z" fill="#7B70EE"/>
<path d="M85.533 116.087L82.3221 114.477L77.7085 123.602C78.8063 124.079 79.8749 124.62 80.9084 125.223L85.533 116.087Z" fill="#7B70EE"/>
<path d="M68.021 121.302L67.9333 110.906H64.3389L64.4265 121.269C65.0073 121.269 65.5991 121.203 66.1799 121.203C66.7607 121.203 67.4073 121.269 68.021 121.302Z" fill="#7B70EE"/>
<path d="M429.493 337.799H325.55V358.284H429.493V337.799Z" fill="#F0C64B"/>
<path d="M335.588 337.799H331.402V358.284H335.588V337.799Z" fill="#D8A32B"/>
<path d="M341.879 337.799H337.692V358.284H341.879V337.799Z" fill="#D8A32B"/>
<path d="M417.362 337.799H413.176V358.284H417.362V337.799Z" fill="#D8A32B"/>
<path d="M423.641 337.799H419.455V358.284H423.641V337.799Z" fill="#D8A32B"/>
<path d="M439.498 326.351V323.196C439.496 321.041 438.638 318.976 437.114 317.452C435.589 315.928 433.523 315.071 431.367 315.068H338.733V334.469H431.367C433.521 334.466 435.586 333.61 437.11 332.089C438.634 330.567 439.493 328.504 439.498 326.351Z" fill="white"/>
<path d="M431.367 311.694H338.131V315.101H431.367C433.523 315.104 435.59 315.961 437.114 317.485C438.638 319.008 439.496 321.074 439.499 323.229V326.351C439.493 328.504 438.634 330.567 437.11 332.089C435.586 333.61 433.521 334.466 431.367 334.469H338.131V337.887H431.367C434.428 337.884 437.362 336.668 439.528 334.505C441.693 332.343 442.912 329.411 442.918 326.351V323.196C442.903 320.143 441.68 317.219 439.516 315.063C437.352 312.908 434.422 311.697 431.367 311.694Z" fill="#2525AD"/>
<path d="M433.186 319.45H338.733V321.005H433.186V319.45Z" fill="#F5F5FF"/>
<path d="M433.186 324.116H338.733V325.672H433.186V324.116Z" fill="#F5F5FF"/>
<path d="M433.186 328.794H338.733V330.35H433.186V328.794Z" fill="#F5F5FF"/>
<path d="M330.788 301.418V298.581C330.791 296.642 331.564 294.784 332.936 293.414C334.309 292.044 336.169 291.274 338.108 291.274H421.526V308.736H338.108C336.168 308.733 334.308 307.961 332.935 306.59C331.563 305.218 330.791 303.358 330.788 301.418Z" fill="white"/>
<path d="M338.109 288.196H422.074V291.296H338.109C336.169 291.296 334.309 292.066 332.936 293.436C331.564 294.806 330.791 296.664 330.788 298.603V301.44C330.791 303.38 331.563 305.24 332.935 306.612C334.308 307.983 336.168 308.755 338.109 308.758H422.074V311.836H338.109C335.353 311.831 332.712 310.733 330.765 308.784C328.818 306.836 327.723 304.195 327.72 301.44V298.603C327.718 297.238 327.986 295.886 328.507 294.624C329.028 293.362 329.793 292.215 330.758 291.249C331.723 290.282 332.868 289.515 334.13 288.992C335.391 288.468 336.743 288.198 338.109 288.196Z" fill="#F0C64B"/>
<path d="M336.476 296.576H421.526V295.174H336.476V296.576Z" fill="#F5F5FF"/>
<path d="M336.476 300.783H421.526V299.381H336.476V300.783Z" fill="#F5F5FF"/>
<path d="M336.476 305.001H421.526V303.598H336.476V305.001Z" fill="#F5F5FF"/>
<path d="M163.186 70.3734C165.043 70.347 166.834 71.0575 168.167 72.3492C169.5 73.6408 170.267 75.4082 170.299 77.2639V78.3593C171.886 83.1975 172.66 88.2651 172.589 93.3563C172.659 98.4474 171.885 103.515 170.299 108.353V109.449C170.244 111.288 169.467 113.032 168.136 114.303C166.805 115.574 165.027 116.27 163.186 116.241C157.992 116.241 153.773 105.976 153.773 93.3125C153.773 80.6489 157.992 70.3734 163.186 70.3734Z" fill="#F0C64B"/>
<path d="M156.973 93.5973C156.973 101.353 157.575 107.63 158.31 107.63C159.044 107.63 159.658 101.353 159.658 93.5973C159.658 85.8414 159.055 79.5753 158.31 79.5753C157.564 79.5753 156.973 85.8523 156.973 93.5973Z" fill="#D8A32B"/>
<path d="M180.249 82.9165V104.289C179.767 109.569 174.901 114.477 168.381 116.241V70.9649C174.901 72.7286 179.767 77.6801 180.249 82.9165Z" fill="#7B70EE"/>
<path d="M168.381 118.694C168.883 118.7 169.367 118.508 169.728 118.159C170.089 117.811 170.298 117.334 170.31 116.832V70.3734C170.298 69.8716 170.089 69.3947 169.728 69.046C169.367 68.6974 168.883 68.5052 168.381 68.5111C167.879 68.5052 167.395 68.6974 167.034 69.046C166.673 69.3947 166.464 69.8716 166.452 70.3734V116.832C166.464 117.334 166.673 117.811 167.034 118.159C167.395 118.508 167.879 118.7 168.381 118.694Z" fill="#2525AD"/>
<path d="M126.256 70.3734C124.399 70.347 122.608 71.0575 121.275 72.3492C119.942 73.6408 119.175 75.4082 119.143 77.2639V78.3593C117.551 83.1966 116.774 88.2644 116.842 93.3563C116.775 98.448 117.553 103.516 119.143 108.353V109.449C119.158 110.368 119.353 111.275 119.718 112.119C120.083 112.963 120.611 113.727 121.272 114.367C121.932 115.007 122.712 115.51 123.567 115.849C124.422 116.187 125.336 116.354 126.256 116.339C131.45 116.339 135.669 106.075 135.669 93.4111C135.669 80.7475 131.406 70.3734 126.256 70.3734Z" fill="#F0C64B"/>
<path d="M132.502 93.5973C132.502 101.353 131.899 107.63 131.154 107.63C130.409 107.63 129.817 101.353 129.817 93.5973C129.817 85.8414 130.42 79.5753 131.154 79.5753C131.888 79.5753 132.502 85.8523 132.502 93.5973Z" fill="#D8A32B"/>
<path d="M109.193 82.9165V104.289C109.675 109.569 114.541 114.477 121.061 116.241V70.9649C114.541 72.7286 109.675 77.6801 109.193 82.9165Z" fill="#7B70EE"/>
<path d="M121.061 118.694C120.559 118.7 120.075 118.508 119.714 118.159C119.353 117.811 119.144 117.334 119.132 116.832V70.3734C119.144 69.8716 119.353 69.3947 119.714 69.046C120.075 68.6974 120.559 68.5052 121.061 68.5111C121.563 68.5052 122.047 68.6974 122.408 69.046C122.769 69.3947 122.978 69.8716 122.99 70.3734V116.832C122.978 117.334 122.769 117.811 122.408 118.159C122.047 118.508 121.563 118.7 121.061 118.694Z" fill="#2525AD"/>
<path d="M168.556 42.1103C164.508 39.009 159.828 36.8327 154.847 35.7347C149.908 34.5339 144.795 34.2186 139.746 34.8036C138.223 34.9788 136.71 35.2198 135.22 35.5375C134.157 35.6907 133.116 35.9702 132.119 36.3701C131.121 36.8411 130.146 37.356 129.171 37.849L121.193 41.8693C120.964 42.0064 120.774 42.2006 120.642 42.4329C120.51 42.6653 120.441 42.9278 120.441 43.1948C120.441 43.4619 120.51 43.7244 120.642 43.9567C120.774 44.189 120.964 44.3832 121.193 44.5204C123.633 45.8782 126.479 46.3173 129.215 45.7582C131.127 45.3613 133.001 44.7967 134.814 44.0712C138.186 42.9295 141.721 42.3449 145.28 42.3404C148.442 42.266 151.586 42.8402 154.518 44.0274C158.814 45.8787 163.943 47.1166 168.216 44.5204C168.42 44.4031 168.594 44.2411 168.725 44.0466C168.856 43.8522 168.941 43.6304 168.974 43.3981C169.007 43.1658 168.986 42.9291 168.914 42.706C168.841 42.4829 168.719 42.2792 168.556 42.1103Z" fill="#7B70EE"/>
<path d="M145.389 33.0946H144.721H144.052C133.361 33.4415 123.224 37.9308 115.784 45.6134C108.344 53.2959 104.185 63.5696 104.185 74.2623V99.2608C104.185 100.592 104.713 101.87 105.654 102.812C106.595 103.755 107.871 104.286 109.204 104.289V79.641L109.094 79.0056C108.203 74.0605 108.326 68.9859 109.457 64.0898C110.587 59.1937 112.701 54.5783 115.669 50.5235C118.804 46.3158 122.894 42.9139 127.603 40.5986L127.79 40.5109C133.066 37.9481 138.855 36.6165 144.721 36.6165C150.587 36.6165 156.376 37.9481 161.652 40.5109L161.838 40.5986C166.568 42.9307 170.674 46.3554 173.816 50.5892C176.783 54.6342 178.896 59.2403 180.027 64.1273C181.157 69.0143 181.281 74.0801 180.391 79.0166L180.282 79.652V104.3C181.616 104.3 182.895 103.77 183.838 102.827C184.782 101.884 185.312 100.605 185.312 99.2718V74.2623C185.311 63.5604 181.144 53.2789 173.692 45.5948C166.241 37.9108 156.09 33.4276 145.389 33.0946Z" fill="#2525AD"/>
<path d="M449.405 122.693H384.015V217.221H449.405V122.693Z" fill="#D5CBFB"/>
<path d="M442.348 136.562H391.072V138.654H442.348V136.562Z" fill="#7B70EE"/>
<path d="M442.348 146.158H391.072V148.25H442.348V146.158Z" fill="#7B70EE"/>
<path d="M442.348 155.765H391.072V157.857H442.348V155.765Z" fill="#7B70EE"/>
<path d="M442.348 165.372H391.072V167.465H442.348V165.372Z" fill="#7B70EE"/>
<path d="M442.348 174.98H391.072V177.072H442.348V174.98Z" fill="#7B70EE"/>
<path d="M442.348 184.576H391.072V186.668H442.348V184.576Z" fill="#7B70EE"/>
<path d="M442.348 207.909H391.072V208.49H442.348V207.909Z" fill="white"/>
<path d="M398.086 198.828C400.701 199.284 403.364 199.402 406.009 199.178C408.513 199.022 410.98 198.494 413.329 197.612C414.962 196.944 416.726 195.103 415.587 193.23C414.579 191.598 412.069 191.433 410.392 191.828C408.445 192.334 406.731 193.494 405.538 195.114C404.343 196.703 403.521 199.003 404.924 200.723C406.327 202.443 408.595 202.629 410.502 202.366C411.582 202.202 412.621 201.83 413.559 201.271C413.997 201.015 414.411 200.722 414.798 200.394C415.262 199.881 415.857 199.503 416.518 199.299C417.351 199.189 417.537 199.814 418.063 200.263C418.244 200.41 418.453 200.518 418.678 200.58C418.902 200.642 419.137 200.657 419.367 200.624C419.937 200.53 420.49 200.356 421.011 200.11C421.671 199.855 422.376 199.74 423.082 199.77C426.195 199.847 429.34 200.263 432.452 200.515C433.011 200.515 433 200.044 432.452 199.989C430.14 199.803 427.817 199.277 425.504 199.08C424.443 198.947 423.373 198.895 422.304 198.926C421.369 199.126 420.45 199.393 419.554 199.726C418.458 199.956 418.326 198.872 417.472 198.543C417.091 198.427 416.688 198.402 416.296 198.47C415.903 198.539 415.533 198.699 415.214 198.937C414.425 199.463 413.768 200.164 412.924 200.624C411.963 201.142 410.901 201.444 409.811 201.512C408.058 201.61 405.428 201.085 405.077 199.003C404.738 197.119 406.305 195.158 407.675 194.041C408.369 193.43 409.186 192.975 410.07 192.705C410.954 192.435 411.886 192.356 412.803 192.474C413.68 192.628 414.82 193.044 414.995 194.019C415.247 195.114 414.239 196.078 413.318 196.527C412.214 197.024 411.055 197.392 409.866 197.623C408.583 197.905 407.284 198.107 405.976 198.225C403.425 198.518 400.848 198.488 398.305 198.138C397.757 198.05 397.527 198.653 398.075 198.74L398.086 198.828Z" fill="#7B70EE"/>
<path d="M466.936 166.465L473.554 170.054C473.875 170.227 474.159 170.461 474.39 170.744C474.621 171.027 474.793 171.352 474.898 171.702C475.002 172.052 475.037 172.419 474.999 172.781C474.961 173.144 474.852 173.496 474.678 173.817L471.297 180.047L459.796 173.81L463.177 167.58C463.528 166.934 464.121 166.453 464.826 166.244C465.531 166.035 466.29 166.115 466.936 166.465Z" fill="#D5CBFB"/>
<path d="M470.419 181.566L458.928 175.333L425.719 236.5L437.209 242.734L470.419 181.566Z" fill="#2525AD"/>
<path d="M466.794 179.511L462.69 177.285L429.492 238.458L433.595 240.684L466.794 179.511Z" fill="#1C1C84"/>
<path d="M473.343 179.501L459.116 171.786L457.621 174.54L471.848 182.255L473.343 179.501Z" fill="#F0C64B"/>
<path d="M437.263 242.712L425.767 236.479L424.595 246.897L429.154 249.373L437.263 242.712Z" fill="#D5CBFB"/>
<path d="M429.153 249.373L424.595 246.897L423.838 253.744L429.153 249.373Z" fill="#2525AD"/>
<path d="M60.1855 73.8569L71.9442 85.6223" stroke="#7B70EE" stroke-width="2.15" stroke-miterlimit="10"/>
<path d="M72.1747 73.8569L60.416 85.6223" stroke="#7B70EE" stroke-width="2.15" stroke-miterlimit="10"/>
<path d="M455.871 250.216L467.629 261.971" stroke="#7B70EE" stroke-width="2.15" stroke-miterlimit="10"/>
<path d="M467.87 250.216L456.101 261.971" stroke="#7B70EE" stroke-width="2.15" stroke-miterlimit="10"/>
<path d="M26.9917 209.005L37.4024 219.423" stroke="#2525AD" stroke-width="1.9" stroke-miterlimit="10"/>
<path d="M37.6219 209.005L27.2002 219.423" stroke="#2525AD" stroke-width="1.9" stroke-miterlimit="10"/>
<path d="M21.4688 122.693C21.4688 124.377 20.9691 126.023 20.033 127.423C19.0969 128.823 17.7664 129.914 16.2098 130.558C14.6533 131.202 12.9407 131.37 11.2887 131.04C9.63663 130.711 8.11944 129.899 6.92905 128.708C5.73866 127.516 4.92856 125.999 4.60125 124.347C4.27394 122.695 4.44412 120.983 5.09028 119.428C5.73643 117.873 6.82951 116.544 8.23122 115.61C9.63293 114.676 11.2803 114.179 12.9648 114.181C14.0825 114.181 15.1892 114.401 16.2217 114.829C17.2541 115.257 18.1921 115.884 18.9819 116.675C19.7717 117.465 20.3979 118.404 20.8246 119.436C21.2513 120.469 21.4702 121.576 21.4688 122.693Z" stroke="#7B70EE" stroke-width="2.15" stroke-miterlimit="10"/>
<path d="M354.601 116.142C359.304 116.142 363.116 112.331 363.116 107.63C363.116 102.929 359.304 99.1184 354.601 99.1184C349.899 99.1184 346.086 102.929 346.086 107.63C346.086 112.331 349.899 116.142 354.601 116.142Z" stroke="#7B70EE" stroke-width="2.15" stroke-miterlimit="10"/>
<path d="M393.439 95.7663C393.439 96.1996 393.311 96.6232 393.07 96.9835C392.829 97.3438 392.487 97.6246 392.086 97.7905C391.686 97.9563 391.245 97.9997 390.82 97.9152C390.395 97.8306 390.004 97.6219 389.698 97.3155C389.391 97.0091 389.182 96.6187 389.098 96.1937C389.013 95.7687 389.057 95.3282 389.222 94.9279C389.388 94.5275 389.669 94.1854 390.03 93.9446C390.39 93.7039 390.814 93.5754 391.247 93.5754C391.829 93.5754 392.386 93.8062 392.797 94.2171C393.208 94.628 393.439 95.1852 393.439 95.7663Z" stroke="#2525AD" stroke-width="1.9" stroke-miterlimit="10"/>
<path d="M184.84 23.6626C184.84 24.0959 184.712 24.5195 184.471 24.8798C184.23 25.2401 183.888 25.5209 183.487 25.6868C183.087 25.8526 182.646 25.896 182.221 25.8115C181.796 25.7269 181.405 25.5182 181.099 25.2118C180.792 24.9054 180.584 24.515 180.499 24.09C180.415 23.665 180.458 23.2245 180.624 22.8242C180.79 22.4238 181.071 22.0817 181.431 21.8409C181.792 21.6002 182.215 21.4717 182.649 21.4717C183.23 21.4717 183.788 21.7025 184.199 22.1134C184.61 22.5243 184.84 23.0815 184.84 23.6626Z" stroke="#2525AD" stroke-width="1.9" stroke-miterlimit="10"/>
<path d="M46.8163 298.077V303.193C43.486 303.396 40.3574 304.857 38.0642 307.279C35.771 309.702 34.4847 312.905 34.4658 316.24V320.622C34.4821 324.046 35.8345 327.329 38.2352 329.772C40.6359 332.215 43.8955 333.625 47.3203 333.702C48.6041 340.611 52.2649 346.854 57.6686 351.35C63.0723 355.845 69.8786 358.31 76.9088 358.317C84.8937 358.314 92.5506 355.141 98.1958 349.496C103.841 343.851 107.012 336.196 107.012 328.214V298.077H46.8163ZM38.6959 320.589V316.207C38.7126 313.997 39.5548 311.874 41.057 310.252C42.5593 308.631 44.6133 307.629 46.8163 307.443V328.203C46.8163 328.619 46.8163 329.024 46.8163 329.43C44.6002 329.243 42.5353 328.23 41.0312 326.593C39.527 324.955 38.6935 322.812 38.6959 320.589Z" fill="#2525AD"/>
<path d="M92.0427 263.811C90.0875 262.886 87.8963 262.579 85.762 262.931C83.6276 263.283 81.6515 264.278 80.0977 265.783C79.5388 261.401 75.3636 258.115 70.9911 257.413C66.6186 256.712 62.1584 258.29 58.3228 260.492C54.4873 262.694 51.0353 265.651 49.4573 269.694C47.8792 273.736 48.7559 278.95 52.3394 281.404C53.8279 282.375 55.6343 282.732 57.3804 282.401C57.6079 283.784 58.1935 285.083 59.079 286.169C60.6499 287.919 62.8484 288.978 65.1963 289.115C67.5441 289.253 69.8513 288.458 71.6157 286.903C72.9225 288.023 74.5202 288.749 76.2234 288.998C77.9266 289.246 79.6653 289.006 81.2374 288.306C81.9108 287.991 82.5377 287.586 83.1004 287.101C82.8852 290.137 81.737 293.034 79.8128 295.393C82.9339 294.316 85.6267 292.266 87.4949 289.545C89.3631 286.823 90.308 283.574 90.1907 280.276C91.6732 280.005 93.0593 279.352 94.2124 278.382C95.3655 277.412 96.2456 276.158 96.7659 274.744C97.3542 272.656 97.2058 270.43 96.3457 268.439C95.4855 266.448 93.9661 264.814 92.0427 263.811Z" fill="#D5CBFB"/>
<path d="M227.185 83.1575H226.703C225.205 83.2225 223.789 83.8632 222.752 84.9459C221.715 86.0287 221.136 87.4699 221.136 88.9689C221.136 90.468 221.715 91.9092 222.752 92.9919C223.789 94.0746 225.205 94.7153 226.703 94.7804H227.174C228.635 94.6703 230 94.0126 230.996 92.9389C231.992 91.8653 232.545 90.4551 232.545 88.9908C232.545 87.5266 231.992 86.1163 230.996 85.0427C230 83.9691 228.635 83.3114 227.174 83.2013L227.185 83.1575Z" fill="#2525AD"/>
<path d="M247.568 88.9087C247.568 87.9121 247.172 86.9564 246.467 86.2517C245.762 85.5471 244.806 85.1512 243.809 85.1512H241.617L241.398 84.4173C241.126 83.4697 240.759 82.5522 240.302 81.6786L239.897 80.9665L241.42 79.4329C242.12 78.7254 242.512 77.7709 242.512 76.7764C242.512 75.7818 242.12 74.8273 241.42 74.1199C240.712 73.4174 239.755 73.0233 238.757 73.0233C237.76 73.0233 236.802 73.4174 236.094 74.1199L234.571 75.6426L233.903 75.292C233.028 74.8372 232.11 74.4703 231.163 74.1965L230.429 73.9774V71.7865C230.428 70.9196 230.128 70.0796 229.579 69.4088C229.029 68.738 228.265 68.2776 227.415 68.1057C227.17 68.0526 226.92 68.0269 226.67 68.0291C225.673 68.0291 224.717 68.4249 224.012 69.1296C223.307 69.8342 222.911 70.79 222.911 71.7865V73.9774L222.188 74.1965C221.236 74.4683 220.315 74.8353 219.437 75.292L218.769 75.6426L217.245 74.1199C216.718 73.5976 216.047 73.2429 215.319 73.1001C214.59 72.9572 213.835 73.0327 213.149 73.3171C212.463 73.6014 211.877 74.0819 211.463 74.6983C211.049 75.3147 210.827 76.0395 210.824 76.7818C210.82 77.2745 210.915 77.7628 211.103 78.2181C211.292 78.6734 211.569 79.0864 211.919 79.4329L213.443 80.9665L213.081 81.6348C212.624 82.5083 212.257 83.4259 211.985 84.3734L211.766 85.1074H209.574C208.578 85.1103 207.624 85.5071 206.92 86.2111C206.215 86.9152 205.818 87.8692 205.815 88.8648C205.821 89.8596 206.219 90.812 206.923 91.5154C207.626 92.2188 208.579 92.6166 209.574 92.6223H211.766L211.985 93.3453C212.257 94.2964 212.624 95.2176 213.081 96.0949L213.443 96.7632L211.919 98.2859C211.215 98.9905 210.819 99.946 210.819 100.942C210.819 101.939 211.215 102.894 211.919 103.599C212.268 103.949 212.682 104.227 213.138 104.416C213.594 104.606 214.083 104.704 214.577 104.704C215.071 104.704 215.56 104.606 216.016 104.416C216.472 104.227 216.886 103.949 217.234 103.599L218.758 102.076L219.426 102.438C220.304 102.894 221.225 103.261 222.177 103.533L222.9 103.752V105.943C222.894 106.448 222.99 106.949 223.181 107.417C223.373 107.884 223.657 108.308 224.015 108.664C224.374 109.019 224.801 109.299 225.27 109.487C225.739 109.674 226.241 109.766 226.747 109.755C226.993 109.752 227.239 109.726 227.481 109.679H227.59C228.42 109.488 229.161 109.02 229.69 108.354C230.22 107.687 230.507 106.86 230.505 106.009V103.818L231.24 103.599C232.187 103.325 233.104 102.958 233.979 102.503L234.648 102.142L236.171 103.665C236.876 104.371 237.832 104.768 238.83 104.769C239.828 104.77 240.785 104.375 241.491 103.67C242.198 102.966 242.595 102.009 242.596 101.012C242.597 100.015 242.202 99.0576 241.497 98.3516L239.897 96.807L240.248 96.1388C240.705 95.2614 241.072 94.3402 241.343 93.3891L241.563 92.6661H243.754C244.252 92.6719 244.746 92.5791 245.208 92.393C245.67 92.2069 246.09 91.9312 246.445 91.5818C246.799 91.2325 247.081 90.8164 247.274 90.3576C247.467 89.8988 247.567 89.4063 247.568 88.9087ZM234.494 96.0949C232.702 98.05 230.235 99.2521 227.59 99.458C227.298 99.4749 227.006 99.4749 226.714 99.458C223.903 99.458 221.208 98.342 219.22 96.3554C217.233 94.3687 216.117 91.6743 216.117 88.8648C216.117 86.0554 217.233 83.3609 219.22 81.3743C221.208 79.3877 223.903 78.2717 226.714 78.2717C227.02 78.2717 227.316 78.2717 227.601 78.2717C229.579 78.438 231.47 79.1563 233.06 80.3447C234.649 81.5331 235.873 83.1438 236.591 84.9934C237.31 86.843 237.494 88.857 237.123 90.8062C236.753 92.7554 235.842 94.5613 234.494 96.0182V96.0949Z" fill="#2525AD"/>
<path d="M388.091 252.572L387.96 252.856C387.781 253.321 387.695 253.816 387.707 254.314C387.72 254.812 387.83 255.303 388.032 255.758C388.234 256.213 388.524 256.624 388.884 256.967C389.245 257.311 389.67 257.579 390.135 257.759C390.6 257.938 391.096 258.023 391.594 258.011C392.092 257.999 392.582 257.889 393.038 257.687C393.493 257.485 393.904 257.195 394.248 256.834C394.591 256.474 394.86 256.049 395.039 255.584C395.082 255.489 395.115 255.39 395.138 255.288C395.397 254.379 395.307 253.405 394.885 252.558C394.462 251.712 393.739 251.053 392.856 250.713C391.973 250.373 390.995 250.375 390.113 250.718C389.231 251.062 388.51 251.723 388.091 252.572Z" fill="#2525AD"/>
<path d="M396.398 241.518C396.096 241.402 395.773 241.347 395.45 241.357C395.126 241.366 394.808 241.44 394.513 241.573C394.217 241.7 393.95 241.887 393.727 242.12C393.505 242.353 393.333 242.629 393.22 242.931L392.716 244.246H392.223C391.576 244.204 390.926 244.222 390.283 244.301L389.79 244.355L389.22 243.074C388.955 242.478 388.465 242.012 387.857 241.778C387.248 241.544 386.572 241.561 385.976 241.825C385.38 242.089 384.914 242.58 384.68 243.188C384.445 243.796 384.462 244.472 384.727 245.068L385.297 246.349L384.924 246.678C384.432 247.099 383.984 247.568 383.587 248.08L383.28 248.474L381.976 247.971C381.447 247.769 380.865 247.755 380.326 247.93C379.788 248.105 379.326 248.46 379.017 248.935C378.929 249.073 378.856 249.219 378.798 249.373C378.68 249.674 378.623 249.996 378.631 250.319C378.638 250.642 378.709 250.961 378.841 251.257C378.972 251.552 379.161 251.819 379.397 252.041C379.632 252.262 379.909 252.436 380.212 252.55L381.516 253.054V253.546C381.468 254.193 381.487 254.843 381.571 255.485L381.626 255.978L380.343 256.548C379.899 256.744 379.522 257.068 379.262 257.478C379.001 257.888 378.869 258.367 378.88 258.852C378.892 259.338 379.048 259.809 379.328 260.207C379.608 260.604 379.999 260.909 380.453 261.083C381.057 261.329 381.734 261.329 382.338 261.083L383.62 260.503L383.949 260.886C384.373 261.375 384.842 261.823 385.351 262.223L385.735 262.529L385.231 263.833C384.999 264.442 385.017 265.118 385.282 265.713C385.547 266.308 386.037 266.775 386.645 267.01C386.945 267.126 387.265 267.18 387.587 267.171C387.909 267.162 388.225 267.088 388.519 266.955C388.815 266.828 389.082 266.641 389.304 266.408C389.526 266.175 389.699 265.899 389.812 265.597L390.327 264.293H390.82C391.467 264.34 392.116 264.322 392.76 264.238L393.253 264.183L393.823 265.465C394.086 266.059 394.575 266.523 395.181 266.757C395.787 266.991 396.461 266.976 397.055 266.714C397.355 266.582 397.626 266.393 397.851 266.155C398.077 265.918 398.253 265.639 398.369 265.333C398.485 265.027 398.54 264.701 398.529 264.374C398.518 264.047 398.441 263.725 398.305 263.428L397.735 262.146L398.107 261.817C398.602 261.399 399.05 260.929 399.444 260.415L399.751 260.021L401.066 260.525C401.366 260.641 401.686 260.697 402.008 260.69C402.33 260.682 402.647 260.612 402.941 260.481C403.235 260.351 403.501 260.164 403.723 259.931C403.945 259.697 404.118 259.423 404.233 259.122C404.297 258.975 404.341 258.821 404.365 258.662V258.586C404.44 258.036 404.329 257.477 404.049 256.999C403.769 256.52 403.336 256.149 402.82 255.946L401.505 255.442V254.949C401.57 254.304 401.57 253.654 401.505 253.01L401.439 252.517L402.732 251.947C403.326 251.683 403.791 251.195 404.025 250.589C404.143 250.288 404.2 249.966 404.193 249.643C404.185 249.319 404.114 249 403.982 248.705C403.851 248.409 403.662 248.143 403.427 247.921C403.191 247.699 402.914 247.526 402.611 247.412C402.315 247.287 401.996 247.223 401.674 247.223C401.353 247.223 401.034 247.287 400.737 247.412L399.455 247.982L399.127 247.598C398.697 247.114 398.228 246.667 397.724 246.262L397.329 245.966L397.833 244.651C398.051 244.045 398.023 243.378 397.754 242.792C397.486 242.207 396.999 241.749 396.398 241.518ZM397.713 251.169C398.481 252.721 398.634 254.505 398.14 256.165C398.088 256.347 398.026 256.526 397.954 256.701C397.628 257.549 397.138 258.324 396.513 258.982C395.887 259.64 395.138 260.168 394.308 260.537C393.478 260.906 392.584 261.108 391.676 261.131C390.768 261.154 389.865 260.998 389.017 260.672C388.17 260.347 387.394 259.857 386.736 259.232C386.078 258.607 385.549 257.858 385.18 257.028C384.811 256.199 384.609 255.305 384.586 254.397C384.563 253.489 384.719 252.586 385.045 251.739L385.275 251.202C386.031 249.649 387.34 248.434 388.946 247.795C390.564 247.156 392.364 247.148 393.988 247.773C395.612 248.398 396.941 249.61 397.713 251.169Z" fill="#2525AD"/>
</g>
<defs>
<clipPath id="clip0_335_612">
<rect width="476" height="386" fill="white"/>
</clipPath>
</defs>
</svg>
