<svg width="75" height="50" viewBox="0 0 75 50" fill="none" xmlns="http://www.w3.org/2000/svg">
<path d="M31.2498 33.8541V14.8959L49.0623 24.3749L31.2498 33.8541ZM33.3331 18.4375V30.4167L44.6874 24.3747L33.3331 18.4375Z" fill="black"/>
<path d="M69.7912 42.7084H67.7078V4.06264C67.7078 3.02097 66.7702 2.08333 65.7285 2.08333H9.68686C8.6452 2.08333 7.29073 3.02094 7.29073 3.64582V42.7082H5.2074V3.64582C5.2074 1.45848 7.91558 0 9.68686 0H65.7285C67.9159 0 69.7912 1.87529 69.7912 4.06264V42.7084Z" fill="black"/>
<path d="M69.0622 50H5.9372C2.70818 50 0 47.1878 0 43.9581V42.7083H75V43.9581C75 47.1877 72.2918 50 69.0628 50H69.0622ZM2.1872 44.7917C2.60399 46.5622 4.16652 47.9167 5.93705 47.9167H69.1662C70.9368 47.9167 72.4993 46.5623 72.9161 44.7917H2.1872Z" fill="black"/>
<path d="M65.6245 44.7915H9.37454V4.16663H65.6245V44.7915ZM11.4579 42.7082H63.5412V6.24995H11.4579V42.7082Z" fill="black"/>
<path d="M36.4582 2.0835H38.5415V4.16682H36.4582V2.0835Z" fill="black"/>
<path d="M31.2498 44.7916H43.7498V46.875H31.2498V44.7916Z" fill="black"/>
</svg>
