<svg width="75" height="50" viewBox="0 0 75 50" fill="none" xmlns="http://www.w3.org/2000/svg">
<g clip-path="url(#clip0_265_252)">
<path d="M19.2926 11.2897L17.7596 12.8344C17.3016 11.7539 16.2373 10.9945 14.9998 10.9945H10.9998C9.34533 10.9945 7.99985 12.3503 7.99985 14.0175V18.0481C7.99985 19.7152 9.34533 21.071 10.9998 21.071H14.9998C16.6544 21.071 17.9998 19.7152 17.9998 18.0481V15.4421L20.707 12.7142C21.6276 11.779 20.2213 10.3615 19.2928 11.2895L19.2926 11.2897ZM15.9998 14.6077L14.9998 15.6153L13.707 14.3126C12.7794 13.3855 11.3717 14.8016 12.2932 15.7373L14.2932 17.7526C14.8629 18.3063 15.5637 18.0139 16.0004 17.4575V18.0481C16.0004 18.6037 15.5522 19.0558 15.0004 19.0558H11.0004C10.4486 19.0558 10.0004 18.6037 10.0004 18.0481V14.0175C10.0004 13.4619 10.4486 13.0098 11.0004 13.0098H15.0004C15.5522 13.0098 16.0004 13.4619 16.0004 14.0175V14.6081L15.9998 14.6077Z" fill="black"/>
<path d="M8.00009 30.1402C8.00009 31.8074 9.34558 33.1632 11.0001 33.1632H15.0001C16.6546 33.1632 18.0001 31.8074 18.0001 30.1402V27.5343L20.7073 24.8063C21.6278 23.8711 20.2216 22.4536 19.293 23.3817L17.76 24.9265C17.3019 23.8459 16.2377 23.0865 15.0002 23.0865H11.0002C9.34569 23.0865 8.00021 24.4423 8.00021 26.1095L8.00009 30.1402ZM10.0001 26.1096C10.0001 25.5541 10.4483 25.102 11.0001 25.102H15.0001C15.5519 25.102 16.0001 25.5541 16.0001 26.1096V26.7003L15.0001 27.7079L13.7073 26.4052C12.7796 25.4781 11.372 26.8942 12.2935 27.8299L14.2935 29.8452C14.8631 30.3989 15.564 30.1065 16.0007 29.5501V30.1407C16.0007 30.6963 15.5524 31.1484 15.0007 31.1484H11.0007C10.4489 31.1484 10.0007 30.6963 10.0007 30.1407V26.1101L10.0001 26.1096Z" fill="black"/>
<path d="M27.0001 14.0178H23.0001C21.6867 14.0398 21.6849 16.0111 23.0001 16.0331H27.0001C28.3135 16.011 28.3153 14.0398 27.0001 14.0178Z" fill="black"/>
<path d="M21.0001 20.0637H27.0001C28.313 20.0421 28.3157 18.0704 27.0001 18.0484H21.0001C19.6872 18.07 19.6844 20.0417 21.0001 20.0637Z" fill="black"/>
<path d="M27.0001 26.1096H23.0001C21.6867 26.1317 21.6849 28.1029 23.0001 28.1249H27.0001C28.3135 28.1029 28.3153 26.1316 27.0001 26.1096Z" fill="black"/>
<path d="M21.0001 32.1556H27.0001C28.313 32.134 28.3157 30.1623 27.0001 30.1403H21.0001C19.6872 30.1619 19.6844 32.1336 21.0001 32.1556Z" fill="black"/>
<path d="M4.50066 50.2933H55.5007C61.4301 50.1107 61.4618 41.4184 55.5007 41.2244H54.46C55.4145 40.1534 56.0006 38.7431 56.0006 37.1938V34.1102C56.0135 33.4503 55.3256 32.9222 54.7046 33.1628C54.2809 33.1165 53.8613 33.3351 53.6832 33.7485C53.0443 35.2293 51.5993 36.1857 50.0005 36.1857L10.0005 36.1862C7.79426 36.1862 6.00054 34.3778 6.00054 32.1556V12.0025C6.00054 9.78027 7.79426 7.97191 10.0005 7.97191H28.2508C28.8035 7.97191 29.2508 7.52071 29.2508 6.96426C29.2508 6.4078 28.8035 5.9566 28.2508 5.9566H10.0005C6.69209 5.9566 4.00054 8.66875 4.00054 12.0025V37.1939C4.00054 38.7431 4.5867 40.1534 5.54112 41.2245H4.50049C2.01923 41.2245 0.000488281 43.2587 0.000488281 45.7589C0.000488281 48.2592 2.01923 50.2933 4.50049 50.2933L4.50066 50.2933ZM10.0007 38.2015H50.0007C51.506 38.2015 52.9199 37.6342 54.0007 36.6631C54.2274 39.0585 52.4337 41.2393 50.0007 41.2244H10.0007C7.56455 41.2397 5.76535 39.0489 6.00066 36.6491C7.06361 37.6109 8.46317 38.2015 10.0007 38.2015ZM4.50066 43.2397H55.5007C58.781 43.3207 58.8105 48.1885 55.5007 48.278H4.50066C1.22032 48.197 1.19083 43.3288 4.50066 43.2397Z" fill="black"/>
<path d="M54.0001 2.9336V0.918298C54.0001 0.361843 53.5528 -0.0893555 53.0001 -0.0893555C52.4474 -0.0893555 52.0001 0.361843 52.0001 0.918298V2.9336H50.0001V0.918298C50.0001 0.361843 49.5528 -0.0893555 49.0001 -0.0893555C48.4474 -0.0893555 48.0001 0.361843 48.0001 0.918298V2.9336H46.0001V0.918298C46.0001 0.361843 45.5528 -0.0893555 45.0001 -0.0893555C44.4474 -0.0893555 44.0001 0.361843 44.0001 0.918298V2.9336H42.0001V0.918298C42.0001 0.361843 41.5528 -0.0893555 41.0001 -0.0893555C40.4474 -0.0893555 40.0001 0.361843 40.0001 0.918298V2.9336H38.0001V0.918298C38.0001 0.361843 37.5528 -0.0893555 37.0001 -0.0893555C36.4474 -0.0893555 36.0001 0.361843 36.0001 0.918298V2.9336C32.6916 2.9336 30.0001 5.64575 30.0001 8.97952V26.1096C30.0001 29.4434 32.6916 32.1555 36.0001 32.1555H54.0001C57.3085 32.1555 60.0001 29.4434 60.0001 26.1096V8.97952C60.0001 5.64575 57.3085 2.9336 54.0001 2.9336ZM54.0001 30.1402H36.0001C33.9675 30.1402 32.3032 28.5995 32.0514 26.6198C33.1077 27.5537 34.4875 28.1249 36.0001 28.1249H54.0001C55.5125 28.1249 56.8926 27.5536 57.9488 26.6198C57.697 28.5995 56.0327 30.1402 54.0001 30.1402ZM58.0001 22.079C58.0001 24.3013 56.2064 26.1096 54.0001 26.1096H36.0001C33.7938 26.1096 32.0001 24.3013 32.0001 22.079V10.9948H58.0001V22.079ZM32.0001 8.97952C32.0001 6.75727 33.7938 4.94891 36.0001 4.94891V5.95656C36.0001 6.51302 36.4474 6.96422 37.0001 6.96422C37.5528 6.96422 38.0001 6.51302 38.0001 5.95656V4.94891H40.0001V5.95656C40.0001 6.51302 40.4474 6.96422 41.0001 6.96422C41.5528 6.96422 42.0001 6.51302 42.0001 5.95656V4.94891H44.0001V5.95656C44.0001 6.51302 44.4474 6.96422 45.0001 6.96422C45.5528 6.96422 46.0001 6.51302 46.0001 5.95656V4.94891H48.0001V5.95656C48.0001 6.51302 48.4474 6.96422 49.0001 6.96422C49.5528 6.96422 50.0001 6.51302 50.0001 5.95656V4.94891H52.0001V5.95656C52.0001 6.51302 52.4474 6.96422 53.0001 6.96422C53.5528 6.96422 54.0001 6.51302 54.0001 5.95656V4.94891C56.2064 4.94891 58.0001 6.75727 58.0001 8.97952H32.0001Z" fill="black"/>
</g>
<defs>
<clipPath id="clip0_265_252">
<rect width="75" height="50" fill="white"/>
</clipPath>
</defs>
</svg>
