<svg width="76" height="52" viewBox="0 0 76 52" fill="none" xmlns="http://www.w3.org/2000/svg">
<mask id="path-1-outside-1_265_244" maskUnits="userSpaceOnUse" x="0" y="0" width="49" height="52" fill="black">
<rect fill="white" width="49" height="52"/>
<path d="M47.8819 50.3743V46.8643C47.8819 36.8725 41.032 31.7951 33.9567 30.9056C33.9248 30.8973 33.8939 30.896 33.8612 30.8929C33.134 30.8053 32.4046 30.7613 31.6805 30.7613H30.87V27.4396C34.1337 25.2402 36.3065 21.4364 36.3266 17.1086C37.1846 12.6691 36.7037 9.31779 34.8967 7.14714C33.2562 5.1766 31.0345 4.81867 30.2096 4.75416C27.4718 1.34668 23.9386 0.227923 19.974 1.52447C15.3794 3.02637 11.3681 7.49111 11.3436 8.48252C11.3401 8.64776 11.4016 8.80863 11.5158 8.92852C12.5138 9.97832 12.6628 13.7128 12.5207 16.3056C12.5173 16.3487 12.5085 16.3914 12.5138 16.4328C12.5011 16.646 12.4872 16.8531 12.471 17.0471C12.471 21.4364 14.6867 25.2899 18.0113 27.4911V30.7604H17.2057C16.4833 30.7604 15.7557 30.804 15.0298 30.8912C15.0084 30.8939 14.9875 30.8943 14.9666 30.8991C7.87603 31.7763 1 36.8557 1 46.8701V50.3748C1 50.7201 1.27945 51 1.62518 51H47.2581C47.603 51 47.8824 50.7201 47.8824 50.3748L47.8819 50.3743ZM36.2669 41.8834L37.2343 44.3319L30.1726 49.7496H29.0762C35.0345 39.4421 35.1178 34.3154 34.7054 32.273C35.3995 32.3933 36.084 32.5568 36.754 32.7635L39.0746 39.507L36.5142 41.1258C36.2605 41.2862 36.1567 41.6045 36.267 41.8839L36.2669 41.8834ZM21.8573 2.34869C24.7717 1.89005 27.3095 3.03315 29.4008 5.74747C29.5194 5.90093 29.7043 5.99118 29.8983 5.99118H29.9009C29.9388 5.99118 32.3349 6.00992 33.9489 7.96216C35.0963 9.35034 35.6008 11.3636 35.4673 13.9606C33.5817 9.4894 29.7863 8.19018 29.5949 8.12779C29.4196 8.07024 29.2273 8.09465 29.0713 8.19188C28.9152 8.28953 28.8092 8.45127 28.7831 8.63394C28.7827 8.63787 28.6885 9.07644 28.1213 9.48495C27.3553 10.0356 25.7121 10.5592 22.2301 9.92223C18.4075 9.22294 15.96 10.9738 14.5841 12.5677C14.2885 12.9103 14.0313 13.2582 13.8059 13.597C13.7479 11.7232 13.4898 9.58 12.6898 8.40199C13.4362 7.1983 17.4109 3.04835 21.8573 2.34869ZM13.7187 17.101C13.7278 16.9942 13.7461 16.7526 13.7649 16.4309C13.897 16.0494 14.4258 14.6644 15.53 13.3848C17.2203 11.4273 19.3949 10.6753 22.0046 11.1526C25.1479 11.7272 27.4503 11.5075 28.8511 10.5C29.2931 10.1817 29.5695 9.83514 29.7422 9.53911C31.0374 10.1508 34.2632 12.1466 35.0745 17.0953C35.05 23.2149 30.2714 28.1863 24.3994 28.1863C18.5112 28.1858 13.7212 23.1896 13.7187 17.101ZM24.3994 29.4358C26.2732 29.4358 28.041 28.9724 29.6205 28.1689V31.0484L28.7847 31.3593C25.8843 32.4387 22.6964 32.4165 19.8108 31.2987L19.2615 31.0859V28.2107C20.8201 28.9876 22.5579 29.4358 24.3994 29.4358ZM18.1903 32.0115L19.3592 32.4645C22.5313 33.6926 26.033 33.7153 29.2207 32.5312L30.6171 32.0119H31.6809C32.2468 32.0119 32.8127 32.042 33.3763 32.0956C33.7321 33.1712 34.5687 37.9237 27.7314 49.5834C27.7001 49.6357 27.6878 49.6933 27.6735 49.7504H21.1597C21.1458 49.6937 21.1331 49.6362 21.1022 49.583C14.2662 37.9267 15.1573 33.1767 15.5305 32.0941C16.0872 32.0418 16.6466 32.0126 17.2055 32.0126L18.1903 32.0115ZM18.7091 49.7504L11.6474 44.3326L12.6148 41.8842C12.7251 41.6052 12.6213 41.2865 12.3676 41.126L9.80721 39.5073L12.127 32.7655C12.8023 32.5571 13.4924 32.3928 14.1917 32.2716C13.7575 34.3176 13.8024 39.4458 19.7572 49.7504L18.7091 49.7504ZM2.24924 46.8713C2.24924 39.7254 5.89088 35.3299 10.615 33.3176L8.464 39.5681C8.36939 39.8419 8.4762 40.1449 8.72078 40.2997L11.2616 41.9066L10.3112 44.3118C10.2088 44.5717 10.2903 44.8677 10.5122 45.0377L16.6554 49.7506H2.24913L2.24924 46.8713ZM46.6311 49.7504H32.2248L38.368 45.0372C38.5895 44.8672 38.6714 44.5712 38.569 44.3113L37.6186 41.9061L40.1594 40.2991C40.404 40.1444 40.5108 39.8414 40.4162 39.5676L38.2643 33.3153C42.9884 35.3265 46.631 39.7202 46.631 46.8656L46.6311 49.7504Z"/>
</mask>
<path d="M47.8819 50.3743V46.8643C47.8819 36.8725 41.032 31.7951 33.9567 30.9056C33.9248 30.8973 33.8939 30.896 33.8612 30.8929C33.134 30.8053 32.4046 30.7613 31.6805 30.7613H30.87V27.4396C34.1337 25.2402 36.3065 21.4364 36.3266 17.1086C37.1846 12.6691 36.7037 9.31779 34.8967 7.14714C33.2562 5.1766 31.0345 4.81867 30.2096 4.75416C27.4718 1.34668 23.9386 0.227923 19.974 1.52447C15.3794 3.02637 11.3681 7.49111 11.3436 8.48252C11.3401 8.64776 11.4016 8.80863 11.5158 8.92852C12.5138 9.97832 12.6628 13.7128 12.5207 16.3056C12.5173 16.3487 12.5085 16.3914 12.5138 16.4328C12.5011 16.646 12.4872 16.8531 12.471 17.0471C12.471 21.4364 14.6867 25.2899 18.0113 27.4911V30.7604H17.2057C16.4833 30.7604 15.7557 30.804 15.0298 30.8912C15.0084 30.8939 14.9875 30.8943 14.9666 30.8991C7.87603 31.7763 1 36.8557 1 46.8701V50.3748C1 50.7201 1.27945 51 1.62518 51H47.2581C47.603 51 47.8824 50.7201 47.8824 50.3748L47.8819 50.3743ZM36.2669 41.8834L37.2343 44.3319L30.1726 49.7496H29.0762C35.0345 39.4421 35.1178 34.3154 34.7054 32.273C35.3995 32.3933 36.084 32.5568 36.754 32.7635L39.0746 39.507L36.5142 41.1258C36.2605 41.2862 36.1567 41.6045 36.267 41.8839L36.2669 41.8834ZM21.8573 2.34869C24.7717 1.89005 27.3095 3.03315 29.4008 5.74747C29.5194 5.90093 29.7043 5.99118 29.8983 5.99118H29.9009C29.9388 5.99118 32.3349 6.00992 33.9489 7.96216C35.0963 9.35034 35.6008 11.3636 35.4673 13.9606C33.5817 9.4894 29.7863 8.19018 29.5949 8.12779C29.4196 8.07024 29.2273 8.09465 29.0713 8.19188C28.9152 8.28953 28.8092 8.45127 28.7831 8.63394C28.7827 8.63787 28.6885 9.07644 28.1213 9.48495C27.3553 10.0356 25.7121 10.5592 22.2301 9.92223C18.4075 9.22294 15.96 10.9738 14.5841 12.5677C14.2885 12.9103 14.0313 13.2582 13.8059 13.597C13.7479 11.7232 13.4898 9.58 12.6898 8.40199C13.4362 7.1983 17.4109 3.04835 21.8573 2.34869ZM13.7187 17.101C13.7278 16.9942 13.7461 16.7526 13.7649 16.4309C13.897 16.0494 14.4258 14.6644 15.53 13.3848C17.2203 11.4273 19.3949 10.6753 22.0046 11.1526C25.1479 11.7272 27.4503 11.5075 28.8511 10.5C29.2931 10.1817 29.5695 9.83514 29.7422 9.53911C31.0374 10.1508 34.2632 12.1466 35.0745 17.0953C35.05 23.2149 30.2714 28.1863 24.3994 28.1863C18.5112 28.1858 13.7212 23.1896 13.7187 17.101ZM24.3994 29.4358C26.2732 29.4358 28.041 28.9724 29.6205 28.1689V31.0484L28.7847 31.3593C25.8843 32.4387 22.6964 32.4165 19.8108 31.2987L19.2615 31.0859V28.2107C20.8201 28.9876 22.5579 29.4358 24.3994 29.4358ZM18.1903 32.0115L19.3592 32.4645C22.5313 33.6926 26.033 33.7153 29.2207 32.5312L30.6171 32.0119H31.6809C32.2468 32.0119 32.8127 32.042 33.3763 32.0956C33.7321 33.1712 34.5687 37.9237 27.7314 49.5834C27.7001 49.6357 27.6878 49.6933 27.6735 49.7504H21.1597C21.1458 49.6937 21.1331 49.6362 21.1022 49.583C14.2662 37.9267 15.1573 33.1767 15.5305 32.0941C16.0872 32.0418 16.6466 32.0126 17.2055 32.0126L18.1903 32.0115ZM18.7091 49.7504L11.6474 44.3326L12.6148 41.8842C12.7251 41.6052 12.6213 41.2865 12.3676 41.126L9.80721 39.5073L12.127 32.7655C12.8023 32.5571 13.4924 32.3928 14.1917 32.2716C13.7575 34.3176 13.8024 39.4458 19.7572 49.7504L18.7091 49.7504ZM2.24924 46.8713C2.24924 39.7254 5.89088 35.3299 10.615 33.3176L8.464 39.5681C8.36939 39.8419 8.4762 40.1449 8.72078 40.2997L11.2616 41.9066L10.3112 44.3118C10.2088 44.5717 10.2903 44.8677 10.5122 45.0377L16.6554 49.7506H2.24913L2.24924 46.8713ZM46.6311 49.7504H32.2248L38.368 45.0372C38.5895 44.8672 38.6714 44.5712 38.569 44.3113L37.6186 41.9061L40.1594 40.2991C40.404 40.1444 40.5108 39.8414 40.4162 39.5676L38.2643 33.3153C42.9884 35.3265 46.631 39.7202 46.631 46.8656L46.6311 49.7504Z" fill="black"/>
<path d="M47.8819 50.3743V46.8643C47.8819 36.8725 41.032 31.7951 33.9567 30.9056C33.9248 30.8973 33.8939 30.896 33.8612 30.8929C33.134 30.8053 32.4046 30.7613 31.6805 30.7613H30.87V27.4396C34.1337 25.2402 36.3065 21.4364 36.3266 17.1086C37.1846 12.6691 36.7037 9.31779 34.8967 7.14714C33.2562 5.1766 31.0345 4.81867 30.2096 4.75416C27.4718 1.34668 23.9386 0.227923 19.974 1.52447C15.3794 3.02637 11.3681 7.49111 11.3436 8.48252C11.3401 8.64776 11.4016 8.80863 11.5158 8.92852C12.5138 9.97832 12.6628 13.7128 12.5207 16.3056C12.5173 16.3487 12.5085 16.3914 12.5138 16.4328C12.5011 16.646 12.4872 16.8531 12.471 17.0471C12.471 21.4364 14.6867 25.2899 18.0113 27.4911V30.7604H17.2057C16.4833 30.7604 15.7557 30.804 15.0298 30.8912C15.0084 30.8939 14.9875 30.8943 14.9666 30.8991C7.87603 31.7763 1 36.8557 1 46.8701V50.3748C1 50.7201 1.27945 51 1.62518 51H47.2581C47.603 51 47.8824 50.7201 47.8824 50.3748L47.8819 50.3743ZM36.2669 41.8834L37.2343 44.3319L30.1726 49.7496H29.0762C35.0345 39.4421 35.1178 34.3154 34.7054 32.273C35.3995 32.3933 36.084 32.5568 36.754 32.7635L39.0746 39.507L36.5142 41.1258C36.2605 41.2862 36.1567 41.6045 36.267 41.8839L36.2669 41.8834ZM21.8573 2.34869C24.7717 1.89005 27.3095 3.03315 29.4008 5.74747C29.5194 5.90093 29.7043 5.99118 29.8983 5.99118H29.9009C29.9388 5.99118 32.3349 6.00992 33.9489 7.96216C35.0963 9.35034 35.6008 11.3636 35.4673 13.9606C33.5817 9.4894 29.7863 8.19018 29.5949 8.12779C29.4196 8.07024 29.2273 8.09465 29.0713 8.19188C28.9152 8.28953 28.8092 8.45127 28.7831 8.63394C28.7827 8.63787 28.6885 9.07644 28.1213 9.48495C27.3553 10.0356 25.7121 10.5592 22.2301 9.92223C18.4075 9.22294 15.96 10.9738 14.5841 12.5677C14.2885 12.9103 14.0313 13.2582 13.8059 13.597C13.7479 11.7232 13.4898 9.58 12.6898 8.40199C13.4362 7.1983 17.4109 3.04835 21.8573 2.34869ZM13.7187 17.101C13.7278 16.9942 13.7461 16.7526 13.7649 16.4309C13.897 16.0494 14.4258 14.6644 15.53 13.3848C17.2203 11.4273 19.3949 10.6753 22.0046 11.1526C25.1479 11.7272 27.4503 11.5075 28.8511 10.5C29.2931 10.1817 29.5695 9.83514 29.7422 9.53911C31.0374 10.1508 34.2632 12.1466 35.0745 17.0953C35.05 23.2149 30.2714 28.1863 24.3994 28.1863C18.5112 28.1858 13.7212 23.1896 13.7187 17.101ZM24.3994 29.4358C26.2732 29.4358 28.041 28.9724 29.6205 28.1689V31.0484L28.7847 31.3593C25.8843 32.4387 22.6964 32.4165 19.8108 31.2987L19.2615 31.0859V28.2107C20.8201 28.9876 22.5579 29.4358 24.3994 29.4358ZM18.1903 32.0115L19.3592 32.4645C22.5313 33.6926 26.033 33.7153 29.2207 32.5312L30.6171 32.0119H31.6809C32.2468 32.0119 32.8127 32.042 33.3763 32.0956C33.7321 33.1712 34.5687 37.9237 27.7314 49.5834C27.7001 49.6357 27.6878 49.6933 27.6735 49.7504H21.1597C21.1458 49.6937 21.1331 49.6362 21.1022 49.583C14.2662 37.9267 15.1573 33.1767 15.5305 32.0941C16.0872 32.0418 16.6466 32.0126 17.2055 32.0126L18.1903 32.0115ZM18.7091 49.7504L11.6474 44.3326L12.6148 41.8842C12.7251 41.6052 12.6213 41.2865 12.3676 41.126L9.80721 39.5073L12.127 32.7655C12.8023 32.5571 13.4924 32.3928 14.1917 32.2716C13.7575 34.3176 13.8024 39.4458 19.7572 49.7504L18.7091 49.7504ZM2.24924 46.8713C2.24924 39.7254 5.89088 35.3299 10.615 33.3176L8.464 39.5681C8.36939 39.8419 8.4762 40.1449 8.72078 40.2997L11.2616 41.9066L10.3112 44.3118C10.2088 44.5717 10.2903 44.8677 10.5122 45.0377L16.6554 49.7506H2.24913L2.24924 46.8713ZM46.6311 49.7504H32.2248L38.368 45.0372C38.5895 44.8672 38.6714 44.5712 38.569 44.3113L37.6186 41.9061L40.1594 40.2991C40.404 40.1444 40.5108 39.8414 40.4162 39.5676L38.2643 33.3153C42.9884 35.3265 46.631 39.7202 46.631 46.8656L46.6311 49.7504Z" stroke="black" mask="url(#path-1-outside-1_265_244)"/>
<path d="M19.5971 40.7335L19.5971 40.7338C19.5977 41.2166 19.9886 41.6087 20.4722 41.6087H27.6103C28.0937 41.6087 28.4855 41.2168 28.4855 40.7335V36.9244C28.4855 36.4412 28.0942 36.0493 27.6103 36.0493H20.4722C19.9889 36.0493 19.5971 36.4411 19.5971 36.9244L19.5971 40.7335ZM21.3474 37.7992H26.7356V39.8583H21.3474V37.7992Z" fill="black" stroke="black" stroke-width="0.5"/>
</svg>
