<svg width="40" height="40" viewBox="0 0 40 40" fill="none" xmlns="http://www.w3.org/2000/svg">
<path d="M7.46875 24.3359C8.46094 24.3359 9.39063 24.3359 10.3203 24.3359C10.3281 24.2969 10.3438 24.25 10.3516 24.2109C7.0625 23.1719 5.26563 20.9765 5.03125 17.539C6.04688 17.8203 7.00781 18.0937 7.96875 18.3594C7.98438 18.3203 8 18.2812 8.01563 18.2422C5.04688 15.7344 4.33594 12.7344 6 9.12498C9.74219 13.5078 14.3828 15.8984 20.0938 16.2969C20.0547 15.9922 20.0234 15.75 19.9922 15.5078C19.4063 10.6719 24.0938 6.76561 28.7422 8.18748C29.8359 8.52342 30.7813 9.08592 31.6016 9.87498C31.6953 9.96873 31.8984 10.0234 32.0391 9.99217C33.3203 9.72655 34.5313 9.2578 35.6797 8.64061C35.7813 8.58592 35.8828 8.53905 36.0547 8.45311C35.8359 9.28123 35.4609 9.9453 34.9688 10.5156C34.4766 11.0859 33.8984 11.5859 33.3516 12.125C34.5703 11.9844 35.75 11.6328 36.9063 11.164C36.9297 11.1953 36.9609 11.2265 36.9844 11.2578C36.4297 11.8984 35.8984 12.5703 35.3125 13.1797C34.8672 13.6484 34.3281 14.0312 33.8516 14.4687C33.7422 14.5703 33.6484 14.75 33.6563 14.8906C33.7266 18.9219 32.6797 22.6406 30.5547 26.0469C28.2969 29.6562 25.1875 32.2812 21.1719 33.7578C17.9453 34.9453 14.6172 35.25 11.2188 34.7265C8.67188 34.3359 6.28906 33.4687 4.09375 32.1015C4.03906 32.0703 3.99219 32.0312 3.94531 31.9531C5.71094 32.1094 7.44531 31.9453 9.14063 31.4609C10.8281 30.9844 12.3672 30.2031 13.8203 29.0703C12.0156 28.9609 10.5 28.3594 9.25 27.1562C8.44531 26.3984 7.85156 25.4922 7.46875 24.3359Z" fill="black"/>
</svg>
