<svg width="75" height="50" viewBox="0 0 75 50" fill="none" xmlns="http://www.w3.org/2000/svg">
<path d="M55.2509 7.18232H46.3515V5.40291C46.3515 3.98641 45.7889 2.62824 44.7878 1.62717C43.7866 0.626101 42.4285 0.0634766 41.012 0.0634766H19.6543C18.2384 0.0634766 16.8802 0.626024 15.8792 1.62717C14.8774 2.62831 14.3149 3.98644 14.3149 5.40291V7.18232H5.416C4.06208 7.12451 2.74034 7.60482 1.73973 8.51896C0.739179 9.43251 0.140947 10.7054 0.0765686 12.0593V22.0976C0.111728 23.1357 0.47524 24.1362 1.11526 24.9545C1.75468 25.7733 2.63724 26.368 3.63593 26.6535V44.4521C3.60732 45.8865 4.15736 47.2726 5.16148 48.297C6.1662 49.3214 7.54104 49.8988 8.97536 49.8982H51.6908C53.1074 49.8982 54.4655 49.3357 55.4666 48.3345C56.4677 47.3334 57.0303 45.9753 57.0303 44.5588V26.7601V26.7607C58.0296 26.4753 58.9122 25.88 59.5516 25.0617C60.191 24.2429 60.5545 23.2424 60.5902 22.2044V12.0595C60.5253 10.7055 59.9276 9.4326 58.9271 8.5191C57.9265 7.60496 56.6047 7.12465 55.2508 7.18245L55.2509 7.18232ZM17.8749 5.40291C17.8749 4.41965 18.6716 3.6229 19.6543 3.6229H41.012C41.484 3.6229 41.9369 3.81062 42.2706 4.14433C42.6043 4.47805 42.7921 4.93094 42.7921 5.40291V7.18232H17.8752L17.8749 5.40291ZM51.6903 46.3381H8.97481C7.99215 46.3381 7.19541 45.5413 7.19541 44.5581V27.6504L28.7667 33.488C29.2858 33.6489 29.8257 33.7324 30.3686 33.7371C30.8864 33.7425 31.4025 33.6704 31.8995 33.5238L53.4708 27.6504V44.5581C53.4708 45.0301 53.2831 45.483 52.9493 45.8167C52.6156 46.1504 52.1627 46.3381 51.6908 46.3381L51.6903 46.3381ZM57.0297 22.097C56.9564 22.7192 56.4749 23.215 55.8552 23.3074L30.9383 30.0704C30.5557 30.1884 30.1463 30.1884 29.7638 30.0704L4.84691 23.3424H4.84632C4.20093 23.262 3.69799 22.7441 3.636 22.097V12.0587C3.636 11.3465 4.4548 10.7417 5.41602 10.7417H14.3149V14.3011H17.8749V10.7417H42.7918V14.3011H46.3512V10.7417H55.25C56.2113 10.7417 57.0301 11.3465 57.0301 12.0587L57.0297 22.097ZM32.1129 26.76C32.1129 27.4799 31.679 28.1289 31.014 28.4041C30.349 28.6794 29.5838 28.5275 29.0743 28.0186C28.5654 27.5091 28.4134 26.7439 28.6887 26.0788C28.964 25.4138 29.613 24.98 30.3328 24.98C30.8048 24.98 31.2577 25.1677 31.5914 25.5014C31.9251 25.8351 32.1129 26.2881 32.1129 26.76Z" fill="black"/>
</svg>
